<?xml version="1.0" encoding="utf-8"?>
<!-- Generator: Adobe Illustrator 25.2.3, SVG Export Plug-In . SVG Version: 6.00 Build 0)  -->
<svg version="1.1" id="Capa_1" xmlns="http://www.w3.org/2000/svg" xmlns:xlink="http://www.w3.org/1999/xlink" x="0px" y="0px"
	 viewBox="0 0 32 16.72" style="enable-background:new 0 0 32 16.72;" xml:space="preserve">
<style type="text/css">
	.st0{fill:#FFFFFF;}
</style>
<g>
	<path class="st0" d="M6.65,10.03c-0.95,0-1.77-0.17-2.48-0.51C3.46,9.17,2.91,8.69,2.52,8.08C2.13,7.47,1.93,6.76,1.93,5.96
		c0-0.8,0.14-1.53,0.43-2.2s0.69-1.24,1.2-1.73C4.08,1.54,4.69,1.17,5.4,0.9s1.49-0.4,2.34-0.4c0.88,0,1.67,0.16,2.35,0.47
		c0.68,0.31,1.19,0.76,1.52,1.35L9.38,4.06c-0.19-0.34-0.44-0.6-0.75-0.79C8.33,3.08,7.96,2.99,7.54,2.99c-0.37,0-0.7,0.07-1.01,0.2
		c-0.3,0.13-0.56,0.33-0.78,0.57C5.54,4.01,5.37,4.3,5.24,4.64C5.12,4.98,5.06,5.35,5.06,5.76c0,0.36,0.08,0.67,0.24,0.94
		s0.38,0.48,0.66,0.62c0.28,0.15,0.62,0.22,0.99,0.22c0.36,0,0.71-0.08,1.06-0.25C8.35,7.13,8.69,6.86,9,6.49l1.83,1.73
		C10.27,8.9,9.64,9.37,8.96,9.63C8.27,9.9,7.5,10.03,6.65,10.03z"/>
	<path class="st0" d="M16.1,10.03c-0.95,0-1.77-0.17-2.48-0.51c-0.71-0.34-1.26-0.82-1.65-1.43c-0.39-0.61-0.58-1.32-0.58-2.13
		c0-0.8,0.14-1.53,0.43-2.2s0.69-1.24,1.22-1.73c0.53-0.49,1.15-0.86,1.87-1.13s1.52-0.4,2.4-0.4c0.96,0,1.79,0.15,2.49,0.45
		c0.7,0.3,1.26,0.74,1.69,1.33l-2.22,1.7c-0.3-0.38-0.61-0.64-0.95-0.79s-0.72-0.21-1.16-0.21c-0.4,0-0.77,0.07-1.09,0.2
		c-0.32,0.13-0.6,0.33-0.83,0.57c-0.23,0.25-0.41,0.54-0.53,0.88c-0.12,0.34-0.18,0.71-0.18,1.12c0,0.36,0.08,0.67,0.24,0.94
		s0.39,0.48,0.7,0.62c0.3,0.15,0.66,0.22,1.08,0.22c0.35,0,0.7-0.06,1.05-0.18c0.35-0.12,0.71-0.32,1.08-0.6l1.17,2.19
		c-0.48,0.35-1.04,0.61-1.68,0.8C17.51,9.93,16.82,10.03,16.1,10.03z M17.23,8.48l0.7-3.46h2.69l-0.79,3.93L17.23,8.48z"/>
	<path class="st0" d="M22.97,9.82l1.35-6.73h-2.69l0.49-2.38h8.49l-0.49,2.38h-2.69l-1.35,6.73H22.97z"/>
</g>
<g>
	<path class="st0" d="M6.21,13.74c-0.11,0-0.22-0.02-0.32-0.05c-0.1-0.03-0.18-0.08-0.24-0.13l0.08-0.17
		c0.06,0.05,0.13,0.09,0.22,0.12s0.18,0.05,0.27,0.05c0.09,0,0.16-0.01,0.21-0.03c0.05-0.02,0.09-0.05,0.12-0.08
		s0.04-0.07,0.04-0.12c0-0.05-0.02-0.09-0.05-0.12c-0.03-0.03-0.08-0.06-0.13-0.08s-0.11-0.04-0.17-0.05
		c-0.06-0.01-0.13-0.03-0.19-0.05c-0.06-0.02-0.12-0.04-0.18-0.07s-0.1-0.07-0.13-0.12s-0.05-0.11-0.05-0.19
		c0-0.08,0.02-0.15,0.06-0.21c0.04-0.06,0.1-0.12,0.19-0.15c0.08-0.04,0.19-0.06,0.32-0.06c0.09,0,0.17,0.01,0.26,0.03
		s0.16,0.05,0.22,0.1l-0.07,0.17c-0.06-0.04-0.13-0.07-0.2-0.09c-0.07-0.02-0.14-0.03-0.21-0.03c-0.08,0-0.15,0.01-0.2,0.03
		c-0.05,0.02-0.09,0.05-0.12,0.08s-0.04,0.08-0.04,0.12c0,0.05,0.02,0.09,0.05,0.13s0.08,0.06,0.13,0.07
		c0.05,0.02,0.11,0.04,0.17,0.05c0.06,0.01,0.13,0.03,0.19,0.05c0.06,0.02,0.12,0.04,0.17,0.07c0.05,0.03,0.1,0.07,0.13,0.12
		c0.03,0.05,0.05,0.11,0.05,0.19c0,0.08-0.02,0.14-0.06,0.21c-0.04,0.06-0.1,0.12-0.19,0.15S6.34,13.74,6.21,13.74z"/>
	<path class="st0" d="M7.17,12.39c-0.04,0-0.07-0.01-0.1-0.04s-0.04-0.06-0.04-0.09c0-0.04,0.01-0.07,0.04-0.09s0.06-0.04,0.1-0.04
		s0.07,0.01,0.1,0.04c0.03,0.02,0.04,0.05,0.04,0.09s-0.01,0.07-0.04,0.1S7.21,12.39,7.17,12.39z M7.06,13.72V12.6h0.2v1.12H7.06z"
		/>
	<path class="st0" d="M7.97,13.73c-0.09,0-0.18-0.01-0.27-0.04c-0.08-0.03-0.15-0.06-0.2-0.09l0.08-0.16
		c0.05,0.03,0.11,0.06,0.18,0.08s0.14,0.03,0.22,0.03c0.09,0,0.16-0.01,0.2-0.04c0.04-0.03,0.06-0.06,0.06-0.11
		c0-0.04-0.01-0.06-0.04-0.08c-0.03-0.02-0.06-0.04-0.1-0.04s-0.09-0.02-0.14-0.03s-0.1-0.02-0.15-0.03s-0.1-0.03-0.14-0.05
		c-0.04-0.02-0.08-0.05-0.1-0.09c-0.03-0.04-0.04-0.09-0.04-0.16c0-0.07,0.02-0.13,0.06-0.18s0.09-0.09,0.16-0.12
		c0.07-0.03,0.15-0.04,0.25-0.04c0.07,0,0.15,0.01,0.22,0.03s0.14,0.04,0.18,0.07l-0.09,0.16c-0.05-0.03-0.1-0.06-0.16-0.07
		c-0.06-0.01-0.11-0.02-0.17-0.02c-0.09,0-0.15,0.01-0.2,0.04c-0.04,0.03-0.07,0.07-0.07,0.11c0,0.04,0.01,0.07,0.04,0.09
		s0.06,0.04,0.1,0.05s0.09,0.02,0.14,0.03c0.05,0.01,0.1,0.02,0.15,0.03c0.05,0.01,0.1,0.03,0.14,0.05c0.04,0.02,0.08,0.05,0.1,0.09
		c0.03,0.04,0.04,0.09,0.04,0.15c0,0.07-0.02,0.13-0.06,0.17c-0.04,0.05-0.09,0.09-0.17,0.12S8.07,13.73,7.97,13.73z"/>
	<path class="st0" d="M8.55,12.77V12.6h0.71v0.17H8.55z M9.09,13.73c-0.11,0-0.2-0.03-0.26-0.09s-0.09-0.15-0.09-0.26v-1.03h0.2
		v1.02c0,0.06,0.02,0.11,0.05,0.14s0.07,0.05,0.13,0.05c0.06,0,0.12-0.02,0.16-0.05l0.06,0.15c-0.03,0.03-0.07,0.05-0.11,0.06
		C9.19,13.73,9.14,13.73,9.09,13.73z"/>
	<path class="st0" d="M10.04,13.73c-0.12,0-0.23-0.02-0.32-0.07c-0.09-0.05-0.16-0.12-0.21-0.2s-0.07-0.18-0.07-0.3
		s0.02-0.21,0.07-0.29c0.05-0.09,0.12-0.15,0.2-0.2c0.09-0.05,0.18-0.07,0.29-0.07c0.11,0,0.2,0.02,0.29,0.07s0.15,0.12,0.2,0.2
		c0.05,0.09,0.07,0.19,0.07,0.3c0,0.01,0,0.02,0,0.03c0,0.01,0,0.02,0,0.03H9.6v-0.15h0.85l-0.08,0.05c0-0.07-0.01-0.14-0.04-0.19
		c-0.03-0.06-0.07-0.1-0.13-0.13c-0.05-0.03-0.12-0.05-0.19-0.05c-0.07,0-0.13,0.02-0.19,0.05c-0.06,0.03-0.1,0.08-0.13,0.13
		c-0.03,0.06-0.05,0.12-0.05,0.2v0.03c0,0.07,0.02,0.14,0.05,0.2c0.03,0.06,0.08,0.1,0.14,0.14s0.13,0.05,0.21,0.05
		c0.07,0,0.13-0.01,0.18-0.03s0.1-0.06,0.14-0.1l0.11,0.13c-0.05,0.06-0.11,0.1-0.19,0.13C10.22,13.72,10.13,13.73,10.04,13.73z"/>
	<path class="st0" d="M10.83,13.72V12.6h0.19v0.3L11,12.82c0.04-0.07,0.09-0.13,0.16-0.17s0.16-0.06,0.26-0.06
		c0.11,0,0.2,0.03,0.28,0.08c0.08,0.05,0.13,0.13,0.15,0.24l-0.08-0.03c0.03-0.08,0.09-0.15,0.18-0.21c0.08-0.05,0.18-0.08,0.3-0.08
		c0.09,0,0.17,0.02,0.24,0.05s0.12,0.09,0.16,0.16c0.04,0.07,0.06,0.16,0.06,0.27v0.64h-0.2V13.1c0-0.11-0.03-0.19-0.08-0.25
		s-0.12-0.08-0.21-0.08c-0.07,0-0.13,0.01-0.18,0.04c-0.05,0.03-0.09,0.07-0.12,0.12c-0.03,0.05-0.04,0.12-0.04,0.21v0.58h-0.2V13.1
		c0-0.11-0.02-0.19-0.07-0.25c-0.05-0.05-0.12-0.08-0.21-0.08c-0.07,0-0.12,0.01-0.18,0.04s-0.09,0.07-0.12,0.12
		c-0.03,0.05-0.04,0.12-0.04,0.21v0.58H10.83z"/>
	<path class="st0" d="M13.39,13.73c-0.08,0-0.16-0.01-0.22-0.04s-0.11-0.07-0.14-0.12s-0.05-0.11-0.05-0.17
		c0-0.06,0.01-0.12,0.04-0.17c0.03-0.05,0.08-0.09,0.14-0.12s0.15-0.04,0.27-0.04h0.35v0.15h-0.35c-0.1,0-0.17,0.02-0.2,0.05
		c-0.04,0.03-0.05,0.07-0.05,0.12c0,0.05,0.02,0.1,0.07,0.13c0.04,0.03,0.1,0.05,0.18,0.05c0.08,0,0.14-0.02,0.2-0.05
		c0.06-0.03,0.1-0.08,0.12-0.15l0.04,0.14c-0.03,0.07-0.07,0.12-0.14,0.16C13.58,13.71,13.49,13.73,13.39,13.73z M13.76,13.72v-0.24
		l-0.01-0.04v-0.4c0-0.09-0.02-0.15-0.07-0.2c-0.05-0.05-0.13-0.07-0.23-0.07c-0.07,0-0.13,0.01-0.19,0.03
		c-0.06,0.02-0.12,0.05-0.16,0.09l-0.08-0.15c0.06-0.05,0.13-0.08,0.21-0.11c0.08-0.02,0.17-0.04,0.25-0.04
		c0.15,0,0.27,0.04,0.35,0.11c0.08,0.08,0.12,0.19,0.12,0.34v0.68H13.76z"/>
	<path class="st0" d="M15.36,13.73c-0.11,0-0.21-0.02-0.29-0.07c-0.09-0.05-0.15-0.11-0.2-0.2s-0.07-0.19-0.07-0.3
		s0.02-0.21,0.07-0.3c0.05-0.08,0.12-0.15,0.2-0.2c0.08-0.05,0.18-0.07,0.29-0.07c0.09,0,0.18,0.02,0.26,0.06
		c0.08,0.04,0.14,0.11,0.18,0.19s0.07,0.19,0.07,0.32c0,0.13-0.02,0.23-0.07,0.32c-0.04,0.08-0.1,0.15-0.18,0.19
		S15.45,13.73,15.36,13.73z M15.37,13.55c0.07,0,0.13-0.02,0.19-0.05s0.1-0.08,0.14-0.14c0.03-0.06,0.05-0.13,0.05-0.21
		c0-0.08-0.02-0.15-0.05-0.21c-0.03-0.06-0.08-0.1-0.14-0.14s-0.12-0.05-0.19-0.05c-0.07,0-0.14,0.02-0.19,0.05
		c-0.06,0.03-0.1,0.08-0.13,0.14C15.01,13.01,15,13.08,15,13.16c0,0.08,0.02,0.15,0.05,0.21c0.03,0.06,0.08,0.11,0.13,0.14
		C15.24,13.54,15.3,13.55,15.37,13.55z M15.76,13.72v-0.3l0.01-0.26l-0.02-0.26v-0.75h0.2v1.57H15.76z"/>
	<path class="st0" d="M16.83,13.73c-0.12,0-0.23-0.02-0.32-0.07c-0.09-0.05-0.16-0.12-0.21-0.2s-0.07-0.18-0.07-0.3
		s0.02-0.21,0.07-0.29c0.05-0.09,0.12-0.15,0.2-0.2c0.09-0.05,0.18-0.07,0.29-0.07c0.11,0,0.2,0.02,0.29,0.07s0.15,0.12,0.2,0.2
		c0.05,0.09,0.07,0.19,0.07,0.3c0,0.01,0,0.02,0,0.03c0,0.01,0,0.02,0,0.03h-0.95v-0.15h0.85l-0.08,0.05c0-0.07-0.01-0.14-0.04-0.19
		c-0.03-0.06-0.07-0.1-0.13-0.13c-0.05-0.03-0.12-0.05-0.19-0.05c-0.07,0-0.13,0.02-0.19,0.05c-0.06,0.03-0.1,0.08-0.13,0.13
		c-0.03,0.06-0.05,0.12-0.05,0.2v0.03c0,0.07,0.02,0.14,0.05,0.2c0.03,0.06,0.08,0.1,0.14,0.14s0.13,0.05,0.21,0.05
		c0.07,0,0.13-0.01,0.18-0.03c0.05-0.02,0.1-0.06,0.14-0.1l0.11,0.13c-0.05,0.06-0.11,0.1-0.19,0.13
		C17.01,13.72,16.93,13.73,16.83,13.73z"/>
	<path class="st0" d="M18.88,13.74c-0.11,0-0.22-0.02-0.31-0.06c-0.1-0.04-0.18-0.09-0.25-0.16c-0.07-0.07-0.12-0.15-0.16-0.24
		c-0.04-0.09-0.06-0.19-0.06-0.3c0-0.11,0.02-0.21,0.06-0.3c0.04-0.09,0.09-0.17,0.17-0.24s0.15-0.12,0.25-0.16s0.2-0.06,0.31-0.06
		s0.22,0.02,0.32,0.06s0.18,0.1,0.25,0.17l-0.14,0.13c-0.06-0.06-0.12-0.1-0.19-0.13c-0.07-0.03-0.15-0.04-0.23-0.04
		c-0.08,0-0.16,0.01-0.23,0.04c-0.07,0.03-0.13,0.07-0.18,0.12c-0.05,0.05-0.09,0.11-0.12,0.18c-0.03,0.07-0.04,0.15-0.04,0.23
		c0,0.08,0.01,0.16,0.04,0.23c0.03,0.07,0.07,0.13,0.12,0.18c0.05,0.05,0.11,0.09,0.18,0.12c0.07,0.03,0.15,0.04,0.23,0.04
		c0.08,0,0.16-0.01,0.23-0.04c0.07-0.03,0.13-0.07,0.19-0.13l0.14,0.13c-0.07,0.08-0.15,0.13-0.25,0.17
		C19.11,13.72,19,13.74,18.88,13.74z"/>
	<path class="st0" d="M20.13,13.73c-0.11,0-0.21-0.02-0.3-0.07c-0.09-0.05-0.16-0.12-0.21-0.2c-0.05-0.09-0.08-0.18-0.08-0.29
		c0-0.11,0.03-0.21,0.08-0.29c0.05-0.09,0.12-0.15,0.21-0.2c0.09-0.05,0.19-0.07,0.3-0.07c0.11,0,0.21,0.02,0.3,0.07
		s0.16,0.12,0.21,0.2c0.05,0.08,0.08,0.18,0.08,0.29s-0.03,0.21-0.08,0.3s-0.12,0.15-0.21,0.2C20.34,13.71,20.24,13.73,20.13,13.73z
		 M20.13,13.55c0.07,0,0.14-0.02,0.19-0.05c0.06-0.03,0.1-0.08,0.13-0.14c0.03-0.06,0.05-0.13,0.05-0.21c0-0.08-0.02-0.15-0.05-0.21
		c-0.03-0.06-0.08-0.1-0.13-0.14c-0.06-0.03-0.12-0.05-0.19-0.05c-0.07,0-0.14,0.02-0.19,0.05c-0.06,0.03-0.1,0.08-0.14,0.14
		c-0.03,0.06-0.05,0.13-0.05,0.21c0,0.08,0.02,0.15,0.05,0.21c0.03,0.06,0.08,0.11,0.14,0.14C19.99,13.54,20.05,13.55,20.13,13.55z"
		/>
	<path class="st0" d="M20.99,13.72V12.6h0.19v0.3l-0.03-0.08c0.04-0.07,0.09-0.13,0.17-0.17s0.17-0.06,0.27-0.06
		c0.09,0,0.17,0.02,0.24,0.05s0.12,0.09,0.16,0.16c0.04,0.07,0.06,0.16,0.06,0.27v0.64h-0.2V13.1c0-0.11-0.03-0.19-0.08-0.25
		s-0.13-0.08-0.22-0.08c-0.07,0-0.13,0.01-0.19,0.04s-0.09,0.07-0.12,0.12c-0.03,0.05-0.04,0.12-0.04,0.21v0.58H20.99z"/>
	<path class="st0" d="M22.26,12.77V12.6h0.71v0.17H22.26z M22.81,13.73c-0.11,0-0.2-0.03-0.26-0.09s-0.09-0.15-0.09-0.26v-1.03h0.2
		v1.02c0,0.06,0.02,0.11,0.05,0.14s0.07,0.05,0.13,0.05c0.06,0,0.12-0.02,0.16-0.05l0.06,0.15c-0.03,0.03-0.07,0.05-0.11,0.06
		C22.9,13.73,22.86,13.73,22.81,13.73z"/>
	<path class="st0" d="M23.3,13.72V12.6h0.19v0.3l-0.02-0.08c0.03-0.08,0.08-0.14,0.16-0.18s0.16-0.06,0.27-0.06v0.2
		c-0.01,0-0.02,0-0.02,0s-0.02,0-0.02,0c-0.11,0-0.19,0.03-0.26,0.1c-0.06,0.06-0.09,0.16-0.09,0.28v0.56H23.3z"/>
	<path class="st0" d="M24.61,13.73c-0.11,0-0.21-0.02-0.3-0.07c-0.09-0.05-0.16-0.12-0.21-0.2c-0.05-0.09-0.08-0.18-0.08-0.29
		c0-0.11,0.03-0.21,0.08-0.29c0.05-0.09,0.12-0.15,0.21-0.2c0.09-0.05,0.19-0.07,0.3-0.07c0.11,0,0.21,0.02,0.3,0.07
		s0.16,0.12,0.21,0.2c0.05,0.08,0.08,0.18,0.08,0.29s-0.03,0.21-0.08,0.3s-0.12,0.15-0.21,0.2C24.82,13.71,24.72,13.73,24.61,13.73z
		 M24.61,13.55c0.07,0,0.14-0.02,0.19-0.05c0.06-0.03,0.1-0.08,0.13-0.14c0.03-0.06,0.05-0.13,0.05-0.21c0-0.08-0.02-0.15-0.05-0.21
		c-0.03-0.06-0.08-0.1-0.13-0.14c-0.06-0.03-0.12-0.05-0.19-0.05c-0.07,0-0.14,0.02-0.19,0.05c-0.06,0.03-0.1,0.08-0.14,0.14
		c-0.03,0.06-0.05,0.13-0.05,0.21c0,0.08,0.02,0.15,0.05,0.21c0.03,0.06,0.08,0.11,0.14,0.14C24.47,13.54,24.54,13.55,24.61,13.55z"
		/>
	<path class="st0" d="M25.47,13.72v-1.57h0.2v1.57H25.47z"/>
	<path class="st0" d="M5.56,16.27c-0.11,0-0.21-0.02-0.29-0.07c-0.09-0.05-0.15-0.11-0.2-0.2c-0.05-0.09-0.07-0.19-0.07-0.3
		s0.02-0.21,0.07-0.3c0.05-0.08,0.12-0.15,0.2-0.2c0.08-0.05,0.18-0.07,0.29-0.07c0.09,0,0.18,0.02,0.26,0.06
		c0.08,0.04,0.14,0.11,0.18,0.19s0.07,0.19,0.07,0.32c0,0.13-0.02,0.23-0.07,0.32c-0.04,0.08-0.1,0.15-0.18,0.19
		S5.65,16.27,5.56,16.27z M5.57,16.09c0.07,0,0.13-0.02,0.19-0.05s0.1-0.08,0.14-0.14c0.03-0.06,0.05-0.13,0.05-0.21
		c0-0.08-0.02-0.15-0.05-0.21c-0.03-0.06-0.08-0.1-0.14-0.14S5.64,15.3,5.57,15.3c-0.07,0-0.14,0.02-0.19,0.05
		c-0.06,0.03-0.1,0.08-0.13,0.14c-0.03,0.06-0.05,0.13-0.05,0.21c0,0.08,0.02,0.15,0.05,0.21c0.03,0.06,0.08,0.11,0.13,0.14
		C5.44,16.07,5.5,16.09,5.57,16.09z M5.96,16.25v-0.3l0.01-0.26l-0.02-0.26v-0.75h0.2v1.57H5.96z"/>
	<path class="st0" d="M7.03,16.27c-0.12,0-0.23-0.02-0.32-0.07c-0.09-0.05-0.16-0.12-0.21-0.2c-0.05-0.09-0.07-0.18-0.07-0.3
		s0.02-0.21,0.07-0.29c0.05-0.09,0.12-0.15,0.2-0.2c0.09-0.05,0.18-0.07,0.29-0.07c0.11,0,0.2,0.02,0.29,0.07s0.15,0.12,0.2,0.2
		c0.05,0.09,0.07,0.19,0.07,0.3c0,0.01,0,0.02,0,0.03c0,0.01,0,0.02,0,0.03H6.59v-0.15h0.85l-0.08,0.05c0-0.07-0.01-0.14-0.04-0.19
		c-0.03-0.06-0.07-0.1-0.13-0.13c-0.05-0.03-0.12-0.05-0.19-0.05c-0.07,0-0.13,0.02-0.19,0.05c-0.06,0.03-0.1,0.08-0.13,0.13
		c-0.03,0.06-0.05,0.12-0.05,0.2v0.03c0,0.07,0.02,0.14,0.05,0.2c0.03,0.06,0.08,0.1,0.14,0.14s0.13,0.05,0.21,0.05
		c0.07,0,0.13-0.01,0.18-0.03s0.1-0.06,0.14-0.1l0.11,0.13c-0.05,0.06-0.11,0.1-0.19,0.13C7.21,16.25,7.12,16.27,7.03,16.27z"/>
	<path class="st0" d="M9.09,16.27c-0.11,0-0.22-0.02-0.31-0.06s-0.18-0.09-0.25-0.16c-0.07-0.07-0.13-0.15-0.16-0.24
		c-0.04-0.09-0.06-0.19-0.06-0.3c0-0.11,0.02-0.21,0.06-0.3c0.04-0.09,0.09-0.17,0.17-0.24c0.07-0.07,0.15-0.12,0.25-0.16
		s0.2-0.06,0.32-0.06c0.12,0,0.22,0.02,0.32,0.06s0.18,0.09,0.25,0.17l-0.13,0.13c-0.06-0.06-0.13-0.1-0.2-0.13
		c-0.07-0.03-0.15-0.04-0.23-0.04c-0.08,0-0.16,0.01-0.24,0.04c-0.07,0.03-0.14,0.07-0.19,0.12s-0.09,0.11-0.12,0.18
		s-0.04,0.15-0.04,0.23s0.01,0.16,0.04,0.23c0.03,0.07,0.07,0.13,0.12,0.18c0.05,0.05,0.12,0.09,0.19,0.12s0.15,0.04,0.23,0.04
		c0.08,0,0.15-0.01,0.23-0.04c0.07-0.02,0.14-0.07,0.2-0.12l0.12,0.16c-0.07,0.06-0.16,0.11-0.26,0.14
		C9.29,16.25,9.19,16.27,9.09,16.27z M9.65,16.08l-0.2-0.03v-0.55h0.2V16.08z"/>
	<path class="st0" d="M10.52,16.27c-0.12,0-0.23-0.02-0.32-0.07c-0.09-0.05-0.16-0.12-0.21-0.2c-0.05-0.09-0.07-0.18-0.07-0.3
		s0.02-0.21,0.07-0.29c0.05-0.09,0.12-0.15,0.2-0.2c0.09-0.05,0.18-0.07,0.29-0.07c0.11,0,0.2,0.02,0.29,0.07s0.15,0.12,0.2,0.2
		c0.05,0.09,0.07,0.19,0.07,0.3c0,0.01,0,0.02,0,0.03c0,0.01,0,0.02,0,0.03h-0.95v-0.15h0.85l-0.08,0.05c0-0.07-0.01-0.14-0.04-0.19
		c-0.03-0.06-0.07-0.1-0.13-0.13c-0.05-0.03-0.12-0.05-0.19-0.05c-0.07,0-0.13,0.02-0.19,0.05c-0.06,0.03-0.1,0.08-0.13,0.13
		c-0.03,0.06-0.05,0.12-0.05,0.2v0.03c0,0.07,0.02,0.14,0.05,0.2c0.03,0.06,0.08,0.1,0.14,0.14s0.13,0.05,0.21,0.05
		c0.07,0,0.13-0.01,0.18-0.03s0.1-0.06,0.14-0.1l0.11,0.13c-0.05,0.06-0.11,0.1-0.19,0.13C10.7,16.25,10.61,16.27,10.52,16.27z"/>
	<path class="st0" d="M11.64,16.27c-0.09,0-0.18-0.01-0.27-0.04c-0.08-0.03-0.15-0.06-0.2-0.09l0.08-0.16
		c0.05,0.03,0.11,0.06,0.18,0.08s0.14,0.03,0.22,0.03c0.09,0,0.16-0.01,0.2-0.04c0.04-0.03,0.06-0.06,0.06-0.11
		c0-0.04-0.01-0.06-0.04-0.08c-0.03-0.02-0.06-0.04-0.1-0.04s-0.09-0.02-0.14-0.03s-0.1-0.02-0.15-0.03s-0.1-0.03-0.14-0.05
		c-0.04-0.02-0.08-0.05-0.1-0.09c-0.03-0.04-0.04-0.09-0.04-0.16c0-0.07,0.02-0.13,0.06-0.18s0.09-0.09,0.16-0.12
		c0.07-0.03,0.15-0.04,0.25-0.04c0.07,0,0.15,0.01,0.22,0.03s0.14,0.04,0.18,0.07L12,15.39c-0.05-0.03-0.1-0.06-0.16-0.07
		c-0.06-0.01-0.11-0.02-0.17-0.02c-0.09,0-0.15,0.01-0.2,0.04c-0.04,0.03-0.07,0.07-0.07,0.11c0,0.04,0.01,0.07,0.04,0.09
		s0.06,0.04,0.1,0.05s0.09,0.02,0.14,0.03c0.05,0.01,0.1,0.02,0.15,0.03c0.05,0.01,0.1,0.03,0.14,0.05c0.04,0.02,0.08,0.05,0.1,0.09
		c0.03,0.04,0.04,0.09,0.04,0.15c0,0.07-0.02,0.13-0.06,0.17c-0.04,0.05-0.09,0.09-0.17,0.12S11.74,16.27,11.64,16.27z"/>
	<path class="st0" d="M12.21,15.3v-0.17h0.71v0.17H12.21z M12.76,16.27c-0.11,0-0.2-0.03-0.26-0.09s-0.09-0.15-0.09-0.26v-1.03h0.2
		v1.02c0,0.06,0.02,0.11,0.05,0.14s0.07,0.05,0.13,0.05c0.06,0,0.12-0.02,0.16-0.05L13,16.19c-0.03,0.03-0.07,0.05-0.11,0.06
		C12.85,16.26,12.8,16.27,12.76,16.27z"/>
	<path class="st0" d="M13.35,14.92c-0.04,0-0.07-0.01-0.1-0.04s-0.04-0.06-0.04-0.09c0-0.04,0.01-0.07,0.04-0.09s0.06-0.04,0.1-0.04
		s0.07,0.01,0.1,0.04c0.03,0.02,0.04,0.05,0.04,0.09s-0.01,0.07-0.04,0.1S13.39,14.92,13.35,14.92z M13.25,16.25v-1.12h0.2v1.12
		H13.25z"/>
	<path class="st0" d="M14.31,16.27c-0.11,0-0.21-0.02-0.3-0.07c-0.09-0.05-0.16-0.12-0.21-0.2c-0.05-0.09-0.08-0.18-0.08-0.29
		c0-0.11,0.02-0.21,0.08-0.29c0.05-0.09,0.12-0.15,0.21-0.2c0.09-0.05,0.19-0.07,0.3-0.07c0.11,0,0.21,0.02,0.3,0.07
		c0.09,0.05,0.16,0.12,0.21,0.2c0.05,0.08,0.08,0.18,0.08,0.29s-0.03,0.21-0.08,0.3c-0.05,0.09-0.12,0.15-0.21,0.2
		C14.52,16.24,14.42,16.27,14.31,16.27z M14.31,16.09c0.07,0,0.14-0.02,0.19-0.05c0.06-0.03,0.1-0.08,0.13-0.14
		c0.03-0.06,0.05-0.13,0.05-0.21c0-0.08-0.02-0.15-0.05-0.21c-0.03-0.06-0.08-0.1-0.13-0.14c-0.06-0.03-0.12-0.05-0.19-0.05
		s-0.14,0.02-0.19,0.05c-0.06,0.03-0.1,0.08-0.13,0.14c-0.03,0.06-0.05,0.13-0.05,0.21c0,0.08,0.02,0.15,0.05,0.21
		c0.03,0.06,0.08,0.11,0.13,0.14C14.18,16.07,14.24,16.09,14.31,16.09z M14.15,14.97l0.29-0.27h0.26l-0.35,0.27H14.15z"/>
	<path class="st0" d="M15.18,16.25v-1.12h0.19v0.3l-0.03-0.08c0.04-0.07,0.09-0.13,0.17-0.17s0.16-0.06,0.27-0.06
		c0.09,0,0.17,0.02,0.24,0.05c0.07,0.04,0.12,0.09,0.16,0.16c0.04,0.07,0.06,0.16,0.06,0.27v0.64h-0.2v-0.62
		c0-0.11-0.03-0.19-0.08-0.25s-0.13-0.08-0.22-0.08c-0.07,0-0.13,0.01-0.19,0.04c-0.05,0.03-0.09,0.07-0.12,0.12
		s-0.04,0.12-0.04,0.21v0.58H15.18z"/>
	<path class="st0" d="M17.5,16.25v-1.29H17v-0.18h1.22v0.18h-0.51v1.29H17.5z"/>
	<path class="st0" d="M18.8,16.27c-0.12,0-0.22-0.02-0.32-0.07c-0.09-0.05-0.16-0.12-0.21-0.2c-0.05-0.09-0.08-0.18-0.08-0.3
		s0.02-0.21,0.07-0.29c0.05-0.09,0.12-0.15,0.2-0.2c0.08-0.05,0.18-0.07,0.29-0.07c0.11,0,0.2,0.02,0.29,0.07s0.15,0.12,0.2,0.2
		c0.05,0.09,0.07,0.19,0.07,0.3c0,0.01,0,0.02,0,0.03c0,0.01,0,0.02,0,0.03h-0.95v-0.15h0.85l-0.08,0.05c0-0.07-0.01-0.14-0.04-0.19
		c-0.03-0.06-0.07-0.1-0.13-0.13c-0.05-0.03-0.12-0.05-0.19-0.05c-0.07,0-0.13,0.02-0.19,0.05c-0.05,0.03-0.1,0.08-0.13,0.13
		c-0.03,0.06-0.05,0.12-0.05,0.2v0.03c0,0.07,0.02,0.14,0.05,0.2s0.08,0.1,0.14,0.14s0.13,0.05,0.21,0.05
		c0.07,0,0.13-0.01,0.18-0.03c0.05-0.02,0.1-0.06,0.14-0.1l0.11,0.13c-0.05,0.06-0.11,0.1-0.19,0.13
		C18.98,16.25,18.89,16.27,18.8,16.27z"/>
	<path class="st0" d="M19.6,16.25v-1.12h0.19v0.3l-0.02-0.08c0.03-0.08,0.08-0.14,0.16-0.18s0.16-0.06,0.27-0.06v0.2
		c-0.01,0-0.02,0-0.02,0s-0.02,0-0.02,0c-0.11,0-0.19,0.03-0.26,0.1c-0.06,0.06-0.09,0.16-0.09,0.28v0.56H19.6z"/>
	<path class="st0" d="M20.44,16.25v-1.12h0.19v0.3l-0.02-0.08c0.03-0.08,0.08-0.14,0.16-0.18s0.16-0.06,0.27-0.06v0.2
		c-0.01,0-0.02,0-0.02,0s-0.02,0-0.02,0c-0.11,0-0.19,0.03-0.26,0.1c-0.06,0.06-0.09,0.16-0.09,0.28v0.56H20.44z"/>
	<path class="st0" d="M21.38,14.92c-0.04,0-0.07-0.01-0.1-0.04s-0.04-0.06-0.04-0.09c0-0.04,0.01-0.07,0.04-0.09s0.06-0.04,0.1-0.04
		c0.04,0,0.07,0.01,0.1,0.04c0.03,0.02,0.04,0.05,0.04,0.09s-0.01,0.07-0.04,0.1S21.43,14.92,21.38,14.92z M21.28,16.25v-1.12h0.2
		v1.12H21.28z"/>
	<path class="st0" d="M21.67,15.3v-0.17h0.71v0.17H21.67z M22.21,16.27c-0.11,0-0.2-0.03-0.26-0.09s-0.09-0.15-0.09-0.26v-1.03h0.2
		v1.02c0,0.06,0.02,0.11,0.05,0.14s0.07,0.05,0.13,0.05c0.06,0,0.12-0.02,0.16-0.05l0.06,0.15c-0.03,0.03-0.07,0.05-0.11,0.06
		C22.31,16.26,22.26,16.27,22.21,16.27z"/>
	<path class="st0" d="M23.14,16.27c-0.11,0-0.21-0.02-0.3-0.07c-0.09-0.05-0.16-0.12-0.21-0.2c-0.05-0.09-0.08-0.18-0.08-0.29
		c0-0.11,0.03-0.21,0.08-0.29c0.05-0.09,0.12-0.15,0.21-0.2c0.09-0.05,0.19-0.07,0.3-0.07c0.11,0,0.21,0.02,0.3,0.07
		s0.16,0.12,0.21,0.2c0.05,0.08,0.08,0.18,0.08,0.29s-0.03,0.21-0.08,0.3c-0.05,0.09-0.12,0.15-0.21,0.2
		C23.35,16.24,23.25,16.27,23.14,16.27z M23.14,16.09c0.07,0,0.14-0.02,0.19-0.05c0.06-0.03,0.1-0.08,0.13-0.14
		c0.03-0.06,0.05-0.13,0.05-0.21c0-0.08-0.02-0.15-0.05-0.21c-0.03-0.06-0.08-0.1-0.13-0.14c-0.06-0.03-0.12-0.05-0.19-0.05
		c-0.07,0-0.14,0.02-0.19,0.05c-0.06,0.03-0.1,0.08-0.14,0.14c-0.03,0.06-0.05,0.13-0.05,0.21c0,0.08,0.02,0.15,0.05,0.21
		c0.03,0.06,0.08,0.11,0.14,0.14C23.01,16.07,23.07,16.09,23.14,16.09z"/>
	<path class="st0" d="M24,16.25v-1.12h0.19v0.3l-0.02-0.08c0.03-0.08,0.08-0.14,0.16-0.18s0.16-0.06,0.27-0.06v0.2
		c-0.01,0-0.02,0-0.02,0s-0.02,0-0.02,0c-0.11,0-0.19,0.03-0.26,0.1c-0.06,0.06-0.09,0.16-0.09,0.28v0.56H24z"/>
	<path class="st0" d="M24.95,14.92c-0.04,0-0.07-0.01-0.1-0.04s-0.04-0.06-0.04-0.09c0-0.04,0.01-0.07,0.04-0.09s0.06-0.04,0.1-0.04
		c0.04,0,0.07,0.01,0.1,0.04c0.03,0.02,0.04,0.05,0.04,0.09s-0.01,0.07-0.04,0.1S24.99,14.92,24.95,14.92z M24.85,16.25v-1.12h0.2
		v1.12H24.85z"/>
	<path class="st0" d="M25.76,16.27c-0.08,0-0.16-0.01-0.22-0.04s-0.11-0.07-0.14-0.12s-0.05-0.11-0.05-0.17
		c0-0.06,0.01-0.12,0.04-0.17c0.03-0.05,0.08-0.09,0.14-0.12s0.15-0.04,0.26-0.04h0.36v0.15h-0.35c-0.1,0-0.17,0.02-0.21,0.05
		c-0.04,0.03-0.05,0.07-0.05,0.12c0,0.05,0.02,0.1,0.07,0.13c0.04,0.03,0.1,0.05,0.18,0.05c0.08,0,0.14-0.02,0.2-0.05
		c0.06-0.03,0.1-0.08,0.12-0.15l0.04,0.14c-0.03,0.07-0.07,0.12-0.14,0.16C25.95,16.25,25.87,16.27,25.76,16.27z M26.13,16.25v-0.24
		l-0.01-0.04v-0.4c0-0.09-0.03-0.15-0.08-0.2c-0.05-0.05-0.13-0.07-0.22-0.07c-0.07,0-0.13,0.01-0.19,0.03
		c-0.06,0.02-0.12,0.05-0.16,0.09l-0.08-0.15c0.06-0.05,0.13-0.08,0.21-0.11c0.08-0.02,0.17-0.04,0.25-0.04
		c0.15,0,0.27,0.04,0.35,0.11c0.08,0.08,0.13,0.19,0.13,0.34v0.68H26.13z"/>
	<path class="st0" d="M26.7,16.25v-1.57h0.2v1.57H26.7z"/>
</g>
<polygon class="st0" points="31.43,11.31 0,11.31 0.61,10.69 32,10.69 "/>
<g>
</g>
<g>
</g>
<g>
</g>
<g>
</g>
<g>
</g>
<g>
</g>
</svg>
