<?xml version="1.0" encoding="utf-8"?>
<!-- Generator: Adobe Illustrator 25.2.3, SVG Export Plug-In . SVG Version: 6.00 Build 0)  -->
<svg version="1.1" id="Capa_1" xmlns="http://www.w3.org/2000/svg" xmlns:xlink="http://www.w3.org/1999/xlink" x="0px" y="0px"
	 viewBox="0 0 32 17.72" style="enable-background:new 0 0 32 17.72;" xml:space="preserve">
<style type="text/css">
	.st0{fill:#FFFFFF;}
</style>
<g>
	<path class="st0" d="M6.65,9.7c-0.95,0-1.77-0.17-2.48-0.51C3.46,8.84,2.91,8.36,2.52,7.75C2.13,7.14,1.93,6.43,1.93,5.63
		c0-0.8,0.14-1.53,0.43-2.2s0.69-1.24,1.2-1.73C4.08,1.21,4.69,0.84,5.4,0.57s1.49-0.4,2.34-0.4c0.88,0,1.67,0.16,2.35,0.47
		c0.68,0.31,1.19,0.76,1.52,1.35L9.38,3.73c-0.19-0.34-0.44-0.6-0.75-0.79C8.33,2.75,7.96,2.66,7.54,2.66c-0.37,0-0.7,0.07-1.01,0.2
		C6.24,3,5.98,3.19,5.76,3.43C5.54,3.68,5.37,3.97,5.24,4.31C5.12,4.65,5.06,5.02,5.06,5.43c0,0.36,0.08,0.67,0.24,0.94
		s0.38,0.48,0.66,0.62c0.28,0.15,0.62,0.22,0.99,0.22c0.36,0,0.71-0.08,1.06-0.25C8.36,6.8,8.69,6.53,9,6.16l1.83,1.73
		C10.27,8.57,9.64,9.04,8.96,9.3C8.27,9.57,7.5,9.7,6.65,9.7z"/>
	<path class="st0" d="M16.1,9.7c-0.95,0-1.77-0.17-2.48-0.51c-0.71-0.34-1.26-0.82-1.65-1.43c-0.39-0.61-0.58-1.32-0.58-2.13
		c0-0.8,0.14-1.53,0.43-2.2s0.69-1.24,1.22-1.73c0.53-0.49,1.15-0.86,1.87-1.13s1.52-0.4,2.4-0.4c0.96,0,1.79,0.15,2.49,0.45
		c0.7,0.3,1.26,0.74,1.69,1.33l-2.22,1.7c-0.3-0.38-0.61-0.64-0.95-0.79s-0.72-0.21-1.16-0.21c-0.4,0-0.77,0.07-1.09,0.2
		c-0.32,0.13-0.6,0.33-0.83,0.57c-0.23,0.25-0.41,0.54-0.53,0.88c-0.12,0.34-0.18,0.71-0.18,1.12c0,0.36,0.08,0.67,0.24,0.94
		s0.39,0.48,0.7,0.62c0.3,0.15,0.66,0.22,1.08,0.22c0.35,0,0.7-0.06,1.05-0.18c0.35-0.12,0.71-0.32,1.08-0.6l1.17,2.19
		c-0.48,0.35-1.04,0.61-1.68,0.8C17.51,9.6,16.83,9.7,16.1,9.7z M17.23,8.15l0.7-3.46h2.69l-0.79,3.93L17.23,8.15z"/>
	<path class="st0" d="M22.97,9.49l1.35-6.73h-2.69l0.49-2.38h8.49l-0.49,2.38h-2.69l-1.35,6.73H22.97z"/>
</g>
<g>
	<path class="st0" d="M3.28,13.85c-0.15,0-0.29-0.02-0.42-0.07c-0.13-0.04-0.24-0.1-0.32-0.17l0.1-0.21
		c0.07,0.06,0.17,0.12,0.28,0.16c0.11,0.04,0.23,0.06,0.35,0.06c0.11,0,0.2-0.01,0.27-0.04c0.07-0.03,0.12-0.06,0.15-0.11
		c0.03-0.04,0.05-0.1,0.05-0.15c0-0.07-0.02-0.12-0.06-0.16s-0.1-0.07-0.17-0.1C3.45,13.04,3.38,13.02,3.3,13
		c-0.08-0.02-0.17-0.04-0.25-0.06c-0.08-0.02-0.16-0.06-0.23-0.09c-0.07-0.04-0.12-0.09-0.17-0.15c-0.04-0.07-0.06-0.15-0.06-0.25
		c0-0.1,0.03-0.19,0.08-0.27s0.13-0.15,0.24-0.2c0.11-0.05,0.25-0.08,0.42-0.08c0.11,0,0.22,0.01,0.33,0.04
		c0.11,0.03,0.21,0.07,0.29,0.13l-0.09,0.22c-0.08-0.06-0.17-0.09-0.26-0.12c-0.09-0.02-0.18-0.04-0.27-0.04
		c-0.11,0-0.2,0.01-0.27,0.04c-0.07,0.03-0.12,0.06-0.15,0.11s-0.05,0.1-0.05,0.15c0,0.07,0.02,0.12,0.06,0.16s0.1,0.07,0.17,0.1
		c0.07,0.02,0.14,0.05,0.23,0.06c0.08,0.02,0.17,0.04,0.25,0.06c0.08,0.02,0.16,0.06,0.23,0.09c0.07,0.04,0.12,0.09,0.17,0.15
		c0.04,0.06,0.06,0.15,0.06,0.25c0,0.1-0.03,0.19-0.08,0.27c-0.05,0.08-0.14,0.15-0.25,0.2C3.59,13.83,3.45,13.85,3.28,13.85z"/>
	<path class="st0" d="M4.52,12.1c-0.05,0-0.09-0.02-0.13-0.05c-0.03-0.03-0.05-0.07-0.05-0.12c0-0.05,0.02-0.09,0.05-0.12
		c0.03-0.03,0.08-0.05,0.13-0.05s0.09,0.02,0.13,0.05c0.03,0.03,0.05,0.07,0.05,0.12c0,0.05-0.02,0.09-0.05,0.13
		C4.61,12.08,4.57,12.1,4.52,12.1z M4.38,13.83v-1.45h0.26v1.45H4.38z"/>
	<path class="st0" d="M5.57,13.85c-0.12,0-0.24-0.02-0.34-0.05c-0.11-0.03-0.19-0.07-0.26-0.12l0.11-0.21
		c0.06,0.04,0.14,0.08,0.23,0.11c0.09,0.03,0.18,0.04,0.28,0.04c0.12,0,0.21-0.02,0.26-0.05c0.05-0.03,0.08-0.08,0.08-0.15
		c0-0.04-0.02-0.08-0.05-0.11s-0.08-0.04-0.13-0.06c-0.05-0.01-0.11-0.02-0.18-0.03c-0.07-0.01-0.13-0.02-0.2-0.04
		s-0.13-0.04-0.18-0.07C5.14,13.09,5.1,13.05,5.06,13c-0.03-0.05-0.05-0.12-0.05-0.2c0-0.09,0.02-0.16,0.07-0.23
		c0.05-0.07,0.12-0.12,0.21-0.15c0.09-0.04,0.2-0.05,0.32-0.05c0.1,0,0.19,0.01,0.29,0.03c0.1,0.02,0.18,0.05,0.24,0.1L6.04,12.7
		c-0.07-0.04-0.13-0.07-0.21-0.09c-0.07-0.02-0.14-0.02-0.21-0.02c-0.12,0-0.2,0.02-0.26,0.06c-0.06,0.04-0.09,0.08-0.09,0.14
		c0,0.05,0.02,0.09,0.05,0.11c0.03,0.03,0.08,0.05,0.13,0.06S5.57,12.99,5.64,13s0.13,0.02,0.2,0.04s0.13,0.04,0.18,0.06
		c0.05,0.03,0.1,0.07,0.13,0.12c0.03,0.05,0.05,0.12,0.05,0.2c0,0.09-0.03,0.16-0.08,0.23S6,13.76,5.9,13.79
		C5.81,13.83,5.7,13.85,5.57,13.85z"/>
	<path class="st0" d="M6.32,12.59v-0.22h0.93v0.22H6.32z M7.02,13.85c-0.15,0-0.26-0.04-0.34-0.12c-0.08-0.08-0.12-0.19-0.12-0.34
		v-1.33h0.26v1.32c0,0.08,0.02,0.14,0.06,0.18c0.04,0.04,0.1,0.06,0.17,0.06c0.08,0,0.15-0.02,0.21-0.07l0.08,0.19
		c-0.04,0.03-0.09,0.06-0.14,0.08C7.14,13.84,7.08,13.85,7.02,13.85z"/>
	<path class="st0" d="M8.25,13.85c-0.16,0-0.29-0.03-0.41-0.1c-0.12-0.06-0.21-0.15-0.27-0.26c-0.06-0.11-0.1-0.24-0.1-0.38
		s0.03-0.27,0.09-0.38s0.15-0.2,0.26-0.26c0.11-0.06,0.24-0.09,0.37-0.09c0.14,0,0.27,0.03,0.37,0.09c0.11,0.06,0.19,0.15,0.25,0.26
		c0.06,0.11,0.09,0.24,0.09,0.39c0,0.01,0,0.02,0,0.04c0,0.01,0,0.03,0,0.04H7.68V13h1.1l-0.11,0.07c0-0.09-0.02-0.18-0.06-0.25
		c-0.04-0.07-0.1-0.13-0.17-0.17c-0.07-0.04-0.15-0.06-0.25-0.06c-0.09,0-0.17,0.02-0.24,0.06c-0.07,0.04-0.13,0.1-0.17,0.17
		c-0.04,0.07-0.06,0.16-0.06,0.25v0.04c0,0.1,0.02,0.18,0.07,0.26s0.11,0.13,0.19,0.18s0.17,0.06,0.28,0.06
		c0.09,0,0.16-0.01,0.23-0.04s0.13-0.07,0.19-0.13l0.15,0.17c-0.07,0.08-0.15,0.14-0.25,0.18C8.48,13.83,8.38,13.85,8.25,13.85z"/>
	<path class="st0" d="M9.29,13.83v-1.45h0.25v0.39l-0.04-0.1c0.05-0.1,0.12-0.17,0.21-0.22c0.1-0.05,0.21-0.08,0.33-0.08
		c0.14,0,0.26,0.03,0.36,0.1s0.17,0.17,0.2,0.31l-0.11-0.04c0.04-0.11,0.12-0.2,0.23-0.27c0.11-0.07,0.24-0.1,0.38-0.1
		c0.12,0,0.22,0.02,0.31,0.07c0.09,0.05,0.16,0.12,0.21,0.21c0.05,0.09,0.08,0.21,0.08,0.35v0.84h-0.26v-0.81
		c0-0.14-0.03-0.25-0.1-0.32s-0.16-0.11-0.28-0.11c-0.09,0-0.17,0.02-0.23,0.06c-0.07,0.04-0.12,0.09-0.15,0.16
		c-0.04,0.07-0.05,0.16-0.05,0.27v0.75h-0.26v-0.81c0-0.14-0.03-0.25-0.1-0.32s-0.16-0.11-0.28-0.11c-0.09,0-0.16,0.02-0.23,0.06
		c-0.07,0.04-0.12,0.09-0.15,0.16s-0.05,0.16-0.05,0.27v0.75H9.29z"/>
	<path class="st0" d="M12.61,13.85c-0.11,0-0.2-0.02-0.28-0.05c-0.08-0.04-0.14-0.09-0.19-0.15c-0.04-0.07-0.07-0.14-0.07-0.22
		c0-0.08,0.02-0.15,0.06-0.21c0.04-0.06,0.1-0.12,0.18-0.15s0.2-0.06,0.34-0.06h0.46v0.19h-0.45c-0.13,0-0.22,0.02-0.27,0.07
		c-0.05,0.04-0.07,0.1-0.07,0.16c0,0.07,0.03,0.13,0.08,0.17s0.14,0.06,0.24,0.06c0.1,0,0.19-0.02,0.26-0.07
		c0.07-0.04,0.13-0.11,0.16-0.19l0.05,0.18c-0.03,0.09-0.1,0.15-0.18,0.21C12.86,13.82,12.75,13.85,12.61,13.85z M13.09,13.83v-0.31
		l-0.01-0.06v-0.52c0-0.11-0.03-0.2-0.1-0.26s-0.16-0.09-0.29-0.09c-0.09,0-0.17,0.01-0.25,0.04c-0.08,0.03-0.15,0.07-0.21,0.11
		l-0.11-0.2c0.08-0.06,0.17-0.11,0.27-0.14c0.1-0.03,0.22-0.05,0.33-0.05c0.2,0,0.35,0.05,0.46,0.15c0.11,0.1,0.16,0.25,0.16,0.44
		v0.88H13.09z"/>
	<path class="st0" d="M15.17,13.85c-0.14,0-0.27-0.03-0.38-0.09c-0.11-0.06-0.2-0.15-0.26-0.26c-0.06-0.11-0.1-0.24-0.1-0.39
		c0-0.15,0.03-0.28,0.1-0.39c0.06-0.11,0.15-0.2,0.26-0.26c0.11-0.06,0.24-0.09,0.38-0.09c0.12,0,0.23,0.03,0.33,0.08
		c0.1,0.05,0.18,0.14,0.24,0.25c0.06,0.11,0.09,0.25,0.09,0.41c0,0.17-0.03,0.3-0.09,0.41c-0.06,0.11-0.14,0.19-0.23,0.25
		C15.41,13.82,15.29,13.85,15.17,13.85z M15.19,13.62c0.09,0,0.17-0.02,0.25-0.06c0.07-0.04,0.13-0.1,0.18-0.18
		c0.04-0.08,0.06-0.17,0.06-0.27c0-0.1-0.02-0.19-0.06-0.27c-0.04-0.08-0.1-0.14-0.18-0.18c-0.07-0.04-0.16-0.06-0.25-0.06
		c-0.09,0-0.18,0.02-0.25,0.06s-0.13,0.1-0.18,0.18C14.72,12.91,14.7,13,14.7,13.1c0,0.1,0.02,0.19,0.07,0.27
		c0.04,0.08,0.1,0.14,0.18,0.18S15.1,13.62,15.19,13.62z M15.69,13.83v-0.39l0.02-0.34l-0.03-0.34V11.8h0.26v2.04H15.69z"/>
	<path class="st0" d="M17.08,13.85c-0.16,0-0.29-0.03-0.41-0.1c-0.12-0.06-0.21-0.15-0.27-0.26c-0.06-0.11-0.1-0.24-0.1-0.38
		s0.03-0.27,0.09-0.38s0.15-0.2,0.26-0.26c0.11-0.06,0.24-0.09,0.37-0.09c0.14,0,0.26,0.03,0.37,0.09c0.11,0.06,0.19,0.15,0.25,0.26
		c0.06,0.11,0.09,0.24,0.09,0.39c0,0.01,0,0.02,0,0.04c0,0.01,0,0.03,0,0.04h-1.24V13h1.1l-0.11,0.07c0-0.09-0.02-0.18-0.06-0.25
		c-0.04-0.07-0.1-0.13-0.17-0.17c-0.07-0.04-0.15-0.06-0.25-0.06c-0.09,0-0.17,0.02-0.24,0.06c-0.07,0.04-0.13,0.1-0.17,0.17
		c-0.04,0.07-0.06,0.16-0.06,0.25v0.04c0,0.1,0.02,0.18,0.07,0.26s0.11,0.13,0.19,0.18s0.17,0.06,0.28,0.06
		c0.09,0,0.16-0.01,0.24-0.04c0.07-0.03,0.13-0.07,0.18-0.13l0.15,0.17c-0.07,0.08-0.15,0.14-0.25,0.18S17.21,13.85,17.08,13.85z"/>
	<path class="st0" d="M19.75,13.85c-0.15,0-0.28-0.02-0.41-0.07c-0.12-0.05-0.23-0.12-0.32-0.21c-0.09-0.09-0.16-0.19-0.21-0.31
		c-0.05-0.12-0.08-0.25-0.08-0.39c0-0.14,0.03-0.27,0.08-0.39c0.05-0.12,0.12-0.22,0.21-0.31c0.09-0.09,0.2-0.16,0.32-0.21
		c0.12-0.05,0.26-0.07,0.4-0.07c0.15,0,0.29,0.02,0.41,0.08c0.13,0.05,0.23,0.13,0.32,0.22l-0.18,0.17
		c-0.07-0.08-0.16-0.13-0.25-0.17c-0.09-0.04-0.19-0.06-0.29-0.06c-0.11,0-0.21,0.02-0.3,0.05c-0.09,0.04-0.17,0.09-0.24,0.15
		c-0.07,0.07-0.12,0.14-0.16,0.23c-0.04,0.09-0.06,0.19-0.06,0.3c0,0.11,0.02,0.2,0.06,0.29c0.04,0.09,0.09,0.17,0.16,0.23
		c0.07,0.07,0.15,0.12,0.24,0.15c0.09,0.04,0.19,0.05,0.3,0.05c0.1,0,0.2-0.02,0.29-0.06c0.09-0.04,0.17-0.1,0.25-0.17l0.18,0.17
		c-0.09,0.1-0.19,0.17-0.32,0.23C20.04,13.83,19.9,13.85,19.75,13.85z"/>
	<path class="st0" d="M21.37,13.85c-0.14,0-0.27-0.03-0.39-0.1c-0.11-0.06-0.2-0.15-0.27-0.27c-0.07-0.11-0.1-0.24-0.1-0.38
		c0-0.14,0.03-0.27,0.1-0.38c0.07-0.11,0.16-0.2,0.27-0.26c0.11-0.06,0.24-0.1,0.39-0.1c0.14,0,0.27,0.03,0.39,0.09
		c0.11,0.06,0.2,0.15,0.27,0.26c0.06,0.11,0.1,0.24,0.1,0.38s-0.03,0.27-0.1,0.38c-0.07,0.11-0.16,0.2-0.27,0.26
		C21.64,13.82,21.51,13.85,21.37,13.85z M21.37,13.62c0.09,0,0.18-0.02,0.25-0.06s0.13-0.1,0.17-0.18c0.04-0.08,0.06-0.17,0.06-0.27
		c0-0.1-0.02-0.19-0.06-0.27c-0.04-0.08-0.1-0.14-0.17-0.18s-0.16-0.06-0.25-0.06c-0.09,0-0.18,0.02-0.25,0.06s-0.13,0.1-0.18,0.18
		c-0.04,0.08-0.07,0.17-0.07,0.27c0,0.1,0.02,0.19,0.07,0.27c0.04,0.08,0.1,0.14,0.18,0.18S21.27,13.62,21.37,13.62z"/>
	<path class="st0" d="M22.49,13.83v-1.45h0.25v0.39l-0.04-0.1c0.05-0.1,0.12-0.17,0.22-0.22c0.1-0.05,0.21-0.08,0.35-0.08
		c0.12,0,0.22,0.02,0.31,0.07c0.09,0.05,0.16,0.12,0.21,0.21c0.05,0.09,0.08,0.21,0.08,0.35v0.84H23.6v-0.81
		c0-0.14-0.03-0.25-0.1-0.32s-0.17-0.11-0.29-0.11c-0.09,0-0.17,0.02-0.25,0.06c-0.07,0.04-0.12,0.09-0.16,0.16
		s-0.06,0.16-0.06,0.27v0.75H22.49z"/>
	<path class="st0" d="M24.14,12.59v-0.22h0.93v0.22H24.14z M24.85,13.85c-0.15,0-0.26-0.04-0.34-0.12
		c-0.08-0.08-0.12-0.19-0.12-0.34v-1.33h0.26v1.32c0,0.08,0.02,0.14,0.06,0.18s0.1,0.06,0.17,0.06c0.08,0,0.15-0.02,0.21-0.07
		l0.08,0.19c-0.04,0.03-0.09,0.06-0.14,0.08C24.97,13.84,24.91,13.85,24.85,13.85z"/>
	<path class="st0" d="M25.49,13.83v-1.45h0.25v0.39l-0.02-0.1c0.04-0.1,0.11-0.18,0.2-0.23c0.09-0.05,0.21-0.08,0.35-0.08v0.25
		c-0.01,0-0.02,0-0.03,0c-0.01,0-0.02,0-0.03,0c-0.14,0-0.25,0.04-0.33,0.13c-0.08,0.08-0.12,0.21-0.12,0.37v0.72H25.49z"/>
	<path class="st0" d="M27.2,13.85c-0.14,0-0.27-0.03-0.39-0.1c-0.11-0.06-0.2-0.15-0.27-0.27c-0.07-0.11-0.1-0.24-0.1-0.38
		c0-0.14,0.03-0.27,0.1-0.38c0.07-0.11,0.16-0.2,0.27-0.26c0.11-0.06,0.24-0.1,0.39-0.1c0.14,0,0.27,0.03,0.39,0.09
		c0.11,0.06,0.2,0.15,0.27,0.26c0.06,0.11,0.1,0.24,0.1,0.38s-0.03,0.27-0.1,0.38c-0.07,0.11-0.16,0.2-0.27,0.26
		C27.47,13.82,27.34,13.85,27.2,13.85z M27.2,13.62c0.09,0,0.18-0.02,0.25-0.06s0.13-0.1,0.17-0.18c0.04-0.08,0.06-0.17,0.06-0.27
		c0-0.1-0.02-0.19-0.06-0.27c-0.04-0.08-0.1-0.14-0.17-0.18s-0.16-0.06-0.25-0.06c-0.09,0-0.18,0.02-0.25,0.06s-0.13,0.1-0.18,0.18
		c-0.04,0.08-0.07,0.17-0.07,0.27c0,0.1,0.02,0.19,0.07,0.27c0.04,0.08,0.1,0.14,0.18,0.18S27.1,13.62,27.2,13.62z"/>
	<path class="st0" d="M28.32,13.83V11.8h0.26v2.04H28.32z"/>
	<path class="st0" d="M2.43,17.14c-0.14,0-0.27-0.03-0.38-0.09c-0.11-0.06-0.2-0.15-0.26-0.26c-0.06-0.11-0.1-0.24-0.1-0.39
		c0-0.15,0.03-0.28,0.1-0.39c0.06-0.11,0.15-0.2,0.26-0.26c0.11-0.06,0.24-0.09,0.38-0.09c0.12,0,0.23,0.03,0.33,0.08
		c0.1,0.05,0.18,0.14,0.24,0.25c0.06,0.11,0.09,0.25,0.09,0.41c0,0.17-0.03,0.3-0.09,0.41C2.94,16.92,2.86,17,2.76,17.06
		C2.66,17.11,2.55,17.14,2.43,17.14z M2.45,16.91c0.09,0,0.17-0.02,0.25-0.06c0.07-0.04,0.13-0.1,0.18-0.18
		c0.04-0.08,0.06-0.17,0.06-0.27c0-0.1-0.02-0.19-0.06-0.27c-0.04-0.08-0.1-0.14-0.18-0.18c-0.07-0.04-0.16-0.06-0.25-0.06
		c-0.09,0-0.18,0.02-0.25,0.06s-0.13,0.1-0.18,0.18c-0.04,0.08-0.07,0.17-0.07,0.27c0,0.1,0.02,0.19,0.07,0.27
		c0.04,0.08,0.1,0.14,0.18,0.18S2.35,16.91,2.45,16.91z M2.94,17.12v-0.39l0.02-0.34l-0.03-0.34v-0.97H3.2v2.04H2.94z"/>
	<path class="st0" d="M4.34,17.14c-0.16,0-0.29-0.03-0.41-0.1c-0.12-0.06-0.21-0.15-0.27-0.26c-0.06-0.11-0.1-0.24-0.1-0.38
		s0.03-0.27,0.09-0.38c0.06-0.11,0.15-0.2,0.26-0.26c0.11-0.06,0.24-0.09,0.37-0.09c0.14,0,0.27,0.03,0.37,0.09
		c0.11,0.06,0.19,0.15,0.25,0.26c0.06,0.11,0.09,0.24,0.09,0.39c0,0.01,0,0.02,0,0.04c0,0.01,0,0.03,0,0.04H3.77V16.3h1.1
		l-0.11,0.07c0-0.09-0.02-0.18-0.06-0.25c-0.04-0.07-0.1-0.13-0.17-0.17c-0.07-0.04-0.15-0.06-0.25-0.06
		c-0.09,0-0.17,0.02-0.24,0.06c-0.07,0.04-0.13,0.1-0.17,0.17c-0.04,0.07-0.06,0.16-0.06,0.25v0.04c0,0.1,0.02,0.18,0.07,0.26
		s0.11,0.13,0.19,0.18s0.17,0.06,0.28,0.06c0.09,0,0.16-0.01,0.23-0.04s0.13-0.07,0.19-0.13l0.15,0.17
		c-0.07,0.08-0.15,0.14-0.25,0.18C4.57,17.12,4.46,17.14,4.34,17.14z"/>
	<path class="st0" d="M7.02,17.15c-0.15,0-0.28-0.02-0.41-0.07c-0.12-0.05-0.23-0.12-0.32-0.21c-0.09-0.09-0.16-0.19-0.21-0.31
		C6.02,16.44,6,16.31,6,16.16c0-0.14,0.03-0.27,0.08-0.39c0.05-0.12,0.12-0.22,0.22-0.31s0.2-0.16,0.33-0.21s0.26-0.07,0.41-0.07
		c0.15,0,0.29,0.02,0.42,0.07c0.13,0.05,0.23,0.12,0.32,0.22l-0.17,0.17c-0.08-0.08-0.16-0.13-0.26-0.17
		c-0.09-0.04-0.19-0.05-0.3-0.05c-0.11,0-0.21,0.02-0.31,0.05c-0.09,0.04-0.18,0.09-0.24,0.15c-0.07,0.07-0.12,0.14-0.16,0.23
		c-0.04,0.09-0.06,0.19-0.06,0.3c0,0.1,0.02,0.2,0.06,0.29c0.04,0.09,0.09,0.17,0.16,0.24c0.07,0.07,0.15,0.12,0.24,0.16
		c0.09,0.04,0.19,0.05,0.3,0.05c0.1,0,0.2-0.02,0.29-0.05s0.18-0.08,0.26-0.16l0.16,0.21c-0.1,0.08-0.21,0.14-0.33,0.18
		C7.29,17.13,7.15,17.15,7.02,17.15z M7.75,16.9l-0.26-0.04v-0.71h0.26V16.9z"/>
	<path class="st0" d="M8.88,17.14c-0.16,0-0.29-0.03-0.41-0.1c-0.12-0.06-0.21-0.15-0.27-0.26c-0.06-0.11-0.1-0.24-0.1-0.38
		s0.03-0.27,0.09-0.38c0.06-0.11,0.15-0.2,0.26-0.26c0.11-0.06,0.24-0.09,0.37-0.09c0.14,0,0.27,0.03,0.37,0.09
		c0.11,0.06,0.19,0.15,0.25,0.26c0.06,0.11,0.09,0.24,0.09,0.39c0,0.01,0,0.02,0,0.04c0,0.01,0,0.03,0,0.04H8.3V16.3h1.1L9.3,16.36
		c0-0.09-0.02-0.18-0.06-0.25c-0.04-0.07-0.1-0.13-0.17-0.17C9,15.9,8.92,15.88,8.83,15.88c-0.09,0-0.17,0.02-0.24,0.06
		c-0.07,0.04-0.13,0.1-0.17,0.17c-0.04,0.07-0.06,0.16-0.06,0.25v0.04c0,0.1,0.02,0.18,0.07,0.26s0.11,0.13,0.19,0.18
		s0.17,0.06,0.28,0.06c0.09,0,0.16-0.01,0.23-0.04s0.13-0.07,0.19-0.13l0.15,0.17c-0.07,0.08-0.15,0.14-0.25,0.18
		C9.11,17.12,9,17.14,8.88,17.14z"/>
	<path class="st0" d="M10.33,17.14c-0.12,0-0.24-0.02-0.34-0.05c-0.11-0.03-0.19-0.07-0.26-0.12l0.11-0.21
		c0.06,0.04,0.14,0.08,0.23,0.11c0.09,0.03,0.18,0.04,0.28,0.04c0.12,0,0.21-0.02,0.26-0.05c0.05-0.03,0.08-0.08,0.08-0.15
		c0-0.04-0.02-0.08-0.05-0.11s-0.08-0.04-0.13-0.06c-0.05-0.01-0.11-0.02-0.18-0.03c-0.07-0.01-0.13-0.02-0.2-0.04
		s-0.13-0.04-0.18-0.07c-0.05-0.03-0.1-0.07-0.13-0.12c-0.03-0.05-0.05-0.12-0.05-0.2c0-0.09,0.02-0.16,0.07-0.23
		c0.05-0.07,0.12-0.12,0.21-0.15c0.09-0.04,0.2-0.05,0.32-0.05c0.1,0,0.19,0.01,0.29,0.03c0.1,0.02,0.18,0.05,0.24,0.1L10.8,16
		c-0.07-0.04-0.13-0.07-0.21-0.09c-0.07-0.02-0.14-0.02-0.21-0.02c-0.12,0-0.2,0.02-0.26,0.06c-0.06,0.04-0.09,0.08-0.09,0.14
		c0,0.05,0.02,0.09,0.05,0.11c0.03,0.03,0.08,0.05,0.13,0.06s0.11,0.03,0.18,0.04s0.13,0.02,0.2,0.04s0.13,0.04,0.18,0.06
		c0.05,0.03,0.1,0.07,0.13,0.12c0.03,0.05,0.05,0.12,0.05,0.2c0,0.09-0.03,0.16-0.08,0.23s-0.12,0.11-0.22,0.15
		C10.57,17.12,10.46,17.14,10.33,17.14z"/>
	<path class="st0" d="M11.08,15.89v-0.22H12v0.22H11.08z M11.79,17.14c-0.15,0-0.26-0.04-0.34-0.12c-0.08-0.08-0.12-0.19-0.12-0.34
		v-1.33h0.26v1.32c0,0.08,0.02,0.14,0.06,0.18c0.04,0.04,0.1,0.06,0.17,0.06c0.08,0,0.15-0.02,0.21-0.07l0.08,0.19
		c-0.04,0.03-0.09,0.06-0.14,0.08C11.9,17.13,11.85,17.14,11.79,17.14z"/>
	<path class="st0" d="M12.55,15.39c-0.05,0-0.09-0.02-0.13-0.05c-0.03-0.03-0.05-0.07-0.05-0.12c0-0.05,0.02-0.09,0.05-0.12
		c0.03-0.03,0.08-0.05,0.13-0.05s0.09,0.02,0.13,0.05c0.03,0.03,0.05,0.07,0.05,0.12c0,0.05-0.02,0.09-0.05,0.13
		C12.65,15.37,12.61,15.39,12.55,15.39z M12.42,17.12v-1.45h0.26v1.45H12.42z"/>
	<path class="st0" d="M13.81,17.14c-0.14,0-0.27-0.03-0.39-0.1c-0.11-0.06-0.2-0.15-0.27-0.27c-0.07-0.11-0.1-0.24-0.1-0.38
		c0-0.14,0.03-0.27,0.1-0.38c0.07-0.11,0.16-0.2,0.27-0.26s0.24-0.1,0.39-0.1c0.14,0,0.27,0.03,0.39,0.09
		c0.11,0.06,0.2,0.15,0.27,0.26c0.06,0.11,0.1,0.24,0.1,0.38s-0.03,0.27-0.1,0.38s-0.15,0.2-0.27,0.26
		C14.08,17.11,13.96,17.14,13.81,17.14z M13.81,16.91c0.09,0,0.18-0.02,0.25-0.06c0.07-0.04,0.13-0.1,0.17-0.18
		c0.04-0.08,0.06-0.17,0.06-0.27c0-0.1-0.02-0.19-0.06-0.27c-0.04-0.08-0.1-0.14-0.17-0.18c-0.07-0.04-0.16-0.06-0.25-0.06
		s-0.18,0.02-0.25,0.06s-0.13,0.1-0.18,0.18c-0.04,0.08-0.07,0.17-0.07,0.27c0,0.1,0.02,0.19,0.07,0.27
		c0.04,0.08,0.1,0.14,0.18,0.18S13.72,16.91,13.81,16.91z M13.6,15.46l0.37-0.36h0.33l-0.46,0.36H13.6z"/>
	<path class="st0" d="M14.93,17.12v-1.45h0.25v0.39l-0.04-0.1c0.05-0.1,0.12-0.17,0.22-0.22c0.1-0.05,0.21-0.08,0.35-0.08
		c0.12,0,0.22,0.02,0.31,0.07c0.09,0.05,0.16,0.12,0.21,0.21c0.05,0.09,0.08,0.21,0.08,0.35v0.84h-0.26v-0.81
		c0-0.14-0.03-0.25-0.1-0.32c-0.07-0.07-0.17-0.11-0.29-0.11c-0.09,0-0.17,0.02-0.24,0.06c-0.07,0.04-0.12,0.09-0.16,0.16
		s-0.06,0.16-0.06,0.27v0.75H14.93z"/>
	<path class="st0" d="M17.96,17.12v-1.68H17.3V15.2h1.59v0.24h-0.66v1.68H17.96z"/>
	<path class="st0" d="M19.64,17.14c-0.16,0-0.29-0.03-0.41-0.1c-0.12-0.06-0.21-0.15-0.27-0.26c-0.07-0.11-0.1-0.24-0.1-0.38
		s0.03-0.27,0.09-0.38c0.06-0.11,0.15-0.2,0.26-0.26c0.11-0.06,0.24-0.09,0.37-0.09c0.14,0,0.27,0.03,0.37,0.09
		c0.11,0.06,0.19,0.15,0.25,0.26c0.06,0.11,0.09,0.24,0.09,0.39c0,0.01,0,0.02,0,0.04s0,0.03,0,0.04h-1.24V16.3h1.1l-0.11,0.07
		c0-0.09-0.02-0.18-0.06-0.25s-0.1-0.13-0.17-0.17c-0.07-0.04-0.15-0.06-0.25-0.06c-0.09,0-0.17,0.02-0.24,0.06
		c-0.07,0.04-0.13,0.1-0.17,0.17c-0.04,0.07-0.06,0.16-0.06,0.25v0.04c0,0.1,0.02,0.18,0.07,0.26s0.11,0.13,0.19,0.18
		c0.08,0.04,0.17,0.06,0.28,0.06c0.09,0,0.16-0.01,0.24-0.04c0.07-0.03,0.13-0.07,0.18-0.13l0.15,0.17
		c-0.07,0.08-0.15,0.14-0.25,0.18C19.87,17.12,19.77,17.14,19.64,17.14z"/>
	<path class="st0" d="M20.68,17.12v-1.45h0.25v0.39l-0.02-0.1c0.04-0.1,0.11-0.18,0.2-0.23c0.09-0.05,0.21-0.08,0.35-0.08v0.25
		c-0.01,0-0.02,0-0.03,0c-0.01,0-0.02,0-0.03,0c-0.14,0-0.25,0.04-0.33,0.13c-0.08,0.08-0.12,0.21-0.12,0.37v0.72H20.68z"/>
	<path class="st0" d="M21.77,17.12v-1.45h0.25v0.39L22,15.97c0.04-0.1,0.11-0.18,0.2-0.23c0.09-0.05,0.21-0.08,0.35-0.08v0.25
		c-0.01,0-0.02,0-0.03,0c-0.01,0-0.02,0-0.03,0c-0.14,0-0.25,0.04-0.33,0.13c-0.08,0.08-0.12,0.21-0.12,0.37v0.72H21.77z"/>
	<path class="st0" d="M23,15.39c-0.05,0-0.09-0.02-0.13-0.05c-0.03-0.03-0.05-0.07-0.05-0.12c0-0.05,0.02-0.09,0.05-0.12
		c0.03-0.03,0.08-0.05,0.13-0.05c0.05,0,0.09,0.02,0.13,0.05c0.03,0.03,0.05,0.07,0.05,0.12c0,0.05-0.02,0.09-0.05,0.13
		C23.1,15.37,23.06,15.39,23,15.39z M22.87,17.12v-1.45h0.26v1.45H22.87z"/>
	<path class="st0" d="M23.37,15.89v-0.22h0.93v0.22H23.37z M24.08,17.14c-0.15,0-0.26-0.04-0.34-0.12
		c-0.08-0.08-0.12-0.19-0.12-0.34v-1.33h0.26v1.32c0,0.08,0.02,0.14,0.06,0.18s0.1,0.06,0.17,0.06c0.08,0,0.15-0.02,0.21-0.07
		l0.08,0.19c-0.04,0.03-0.09,0.06-0.14,0.08C24.2,17.13,24.14,17.14,24.08,17.14z"/>
	<path class="st0" d="M25.29,17.14c-0.14,0-0.27-0.03-0.39-0.1c-0.11-0.06-0.2-0.15-0.27-0.27c-0.07-0.11-0.1-0.24-0.1-0.38
		c0-0.14,0.03-0.27,0.1-0.38c0.07-0.11,0.16-0.2,0.27-0.26c0.11-0.06,0.24-0.1,0.39-0.1c0.14,0,0.27,0.03,0.39,0.09
		c0.11,0.06,0.2,0.15,0.27,0.26c0.06,0.11,0.1,0.24,0.1,0.38s-0.03,0.27-0.1,0.38c-0.07,0.11-0.16,0.2-0.27,0.26
		C25.56,17.11,25.43,17.14,25.29,17.14z M25.29,16.91c0.09,0,0.18-0.02,0.25-0.06s0.13-0.1,0.17-0.18c0.04-0.08,0.06-0.17,0.06-0.27
		c0-0.1-0.02-0.19-0.06-0.27c-0.04-0.08-0.1-0.14-0.17-0.18s-0.16-0.06-0.25-0.06c-0.09,0-0.18,0.02-0.25,0.06s-0.13,0.1-0.18,0.18
		c-0.04,0.08-0.07,0.17-0.07,0.27c0,0.1,0.02,0.19,0.07,0.27c0.04,0.08,0.1,0.14,0.18,0.18S25.19,16.91,25.29,16.91z"/>
	<path class="st0" d="M26.41,17.12v-1.45h0.25v0.39l-0.02-0.1c0.04-0.1,0.11-0.18,0.2-0.23c0.09-0.05,0.21-0.08,0.35-0.08v0.25
		c-0.01,0-0.02,0-0.03,0c-0.01,0-0.02,0-0.03,0c-0.14,0-0.25,0.04-0.33,0.13c-0.08,0.08-0.12,0.21-0.12,0.37v0.72H26.41z"/>
	<path class="st0" d="M27.64,15.39c-0.05,0-0.09-0.02-0.13-0.05c-0.03-0.03-0.05-0.07-0.05-0.12c0-0.05,0.02-0.09,0.05-0.12
		c0.03-0.03,0.08-0.05,0.13-0.05c0.05,0,0.09,0.02,0.13,0.05c0.03,0.03,0.05,0.07,0.05,0.12c0,0.05-0.02,0.09-0.05,0.13
		C27.73,15.37,27.69,15.39,27.64,15.39z M27.5,17.12v-1.45h0.26v1.45H27.5z"/>
	<path class="st0" d="M28.69,17.14c-0.11,0-0.2-0.02-0.28-0.05c-0.08-0.04-0.14-0.09-0.19-0.15c-0.04-0.07-0.07-0.14-0.07-0.22
		c0-0.08,0.02-0.15,0.06-0.21c0.04-0.06,0.1-0.12,0.18-0.15s0.2-0.06,0.34-0.06h0.46v0.19h-0.45c-0.13,0-0.22,0.02-0.27,0.07
		s-0.07,0.1-0.07,0.16c0,0.07,0.03,0.13,0.09,0.17c0.06,0.04,0.13,0.06,0.24,0.06c0.1,0,0.19-0.02,0.26-0.07
		c0.07-0.04,0.13-0.11,0.16-0.19l0.05,0.18c-0.04,0.09-0.1,0.15-0.18,0.21C28.94,17.12,28.83,17.14,28.69,17.14z M29.17,17.12v-0.31
		l-0.01-0.06v-0.52c0-0.11-0.03-0.2-0.1-0.26c-0.06-0.06-0.16-0.09-0.29-0.09c-0.09,0-0.17,0.01-0.25,0.04
		c-0.08,0.03-0.15,0.07-0.21,0.11l-0.11-0.2c0.07-0.06,0.17-0.11,0.27-0.14c0.11-0.03,0.22-0.05,0.33-0.05
		c0.2,0,0.35,0.05,0.46,0.15c0.11,0.1,0.16,0.25,0.16,0.44v0.88H29.17z"/>
	<path class="st0" d="M29.91,17.12v-2.04h0.26v2.04H29.91z"/>
</g>
<polygon class="st0" points="31.43,10.98 0,10.98 0.61,10.36 32,10.36 "/>
<g>
</g>
<g>
</g>
<g>
</g>
<g>
</g>
<g>
</g>
<g>
</g>
</svg>
