<?xml version="1.0" encoding="utf-8"?>
<!-- Generator: Adobe Illustrator 25.2.3, SVG Export Plug-In . SVG Version: 6.00 Build 0)  -->
<svg version="1.1" xmlns="http://www.w3.org/2000/svg" xmlns:xlink="http://www.w3.org/1999/xlink" x="0px" y="0px"
	 viewBox="0 0 32 17.72" style="enable-background:new 0 0 32 17.72;" xml:space="preserve">
<style type="text/css">
	.st0{display:none;}
	.st1{display:inline;fill:#1C7873;}
	.st2{fill:#FFFFFF;}
</style>
<g id="Capa_2" class="st0">
	<rect class="st1" width="32" height="17.72"/>
</g>
<g id="Capa_1">
	<g>
		<path class="st2" d="M6.65,9.7c-0.95,0-1.77-0.17-2.48-0.51C3.46,8.84,2.91,8.36,2.52,7.75C2.13,7.14,1.93,6.43,1.93,5.63
			c0-0.8,0.14-1.53,0.43-2.2s0.69-1.24,1.2-1.73C4.08,1.21,4.69,0.84,5.4,0.57s1.49-0.4,2.34-0.4c0.88,0,1.67,0.16,2.35,0.47
			c0.68,0.31,1.19,0.76,1.52,1.35L9.38,3.73c-0.19-0.34-0.44-0.6-0.75-0.79C8.33,2.75,7.96,2.66,7.54,2.66
			c-0.37,0-0.7,0.07-1.01,0.2C6.24,3,5.98,3.19,5.76,3.43C5.54,3.68,5.37,3.97,5.24,4.31C5.12,4.65,5.06,5.02,5.06,5.43
			c0,0.36,0.08,0.67,0.24,0.94s0.38,0.48,0.66,0.62c0.28,0.15,0.62,0.22,0.99,0.22c0.36,0,0.71-0.08,1.06-0.25
			C8.36,6.8,8.69,6.53,9,6.16l1.83,1.73C10.27,8.57,9.64,9.04,8.96,9.3C8.27,9.57,7.5,9.7,6.65,9.7z"/>
		<path class="st2" d="M16.1,9.7c-0.95,0-1.77-0.17-2.48-0.51c-0.71-0.34-1.26-0.82-1.65-1.43c-0.39-0.61-0.58-1.32-0.58-2.13
			c0-0.8,0.14-1.53,0.43-2.2s0.69-1.24,1.22-1.73c0.53-0.49,1.15-0.86,1.87-1.13s1.52-0.4,2.4-0.4c0.96,0,1.79,0.15,2.49,0.45
			c0.7,0.3,1.26,0.74,1.69,1.33l-2.22,1.7c-0.3-0.38-0.61-0.64-0.95-0.79s-0.72-0.21-1.16-0.21c-0.4,0-0.77,0.07-1.09,0.2
			c-0.32,0.13-0.6,0.33-0.83,0.57c-0.23,0.25-0.41,0.54-0.53,0.88c-0.12,0.34-0.18,0.71-0.18,1.12c0,0.36,0.08,0.67,0.24,0.94
			s0.39,0.48,0.7,0.62c0.3,0.15,0.66,0.22,1.08,0.22c0.35,0,0.7-0.06,1.05-0.18c0.35-0.12,0.71-0.32,1.08-0.6l1.17,2.19
			c-0.48,0.35-1.04,0.61-1.68,0.8C17.51,9.6,16.83,9.7,16.1,9.7z M17.23,8.15l0.7-3.46h2.69l-0.79,3.93L17.23,8.15z"/>
		<path class="st2" d="M22.97,9.49l1.35-6.73h-2.69l0.49-2.38h8.49l-0.49,2.38h-2.69l-1.35,6.73H22.97z"/>
	</g>
	<g>
		<path class="st2" d="M3.08,13.86c-0.15,0-0.29-0.02-0.43-0.06s-0.25-0.1-0.33-0.17l0.12-0.28c0.08,0.06,0.17,0.11,0.29,0.15
			s0.23,0.06,0.35,0.06c0.1,0,0.18-0.01,0.24-0.03c0.06-0.02,0.11-0.05,0.14-0.09c0.03-0.04,0.04-0.08,0.04-0.13
			c0-0.06-0.02-0.11-0.06-0.14c-0.04-0.04-0.1-0.06-0.16-0.08c-0.07-0.02-0.14-0.04-0.22-0.06s-0.16-0.04-0.24-0.06
			s-0.16-0.06-0.22-0.1c-0.07-0.04-0.12-0.09-0.16-0.16c-0.04-0.07-0.06-0.15-0.06-0.25c0-0.1,0.03-0.2,0.08-0.29
			c0.06-0.09,0.14-0.16,0.26-0.21s0.26-0.08,0.44-0.08c0.12,0,0.23,0.01,0.34,0.04c0.11,0.03,0.21,0.07,0.3,0.13l-0.11,0.28
			c-0.09-0.05-0.17-0.09-0.27-0.11c-0.09-0.02-0.18-0.04-0.26-0.04c-0.1,0-0.18,0.01-0.24,0.04c-0.06,0.02-0.11,0.06-0.14,0.09
			s-0.04,0.08-0.04,0.13c0,0.06,0.02,0.11,0.06,0.14c0.04,0.04,0.1,0.06,0.16,0.08c0.07,0.02,0.14,0.04,0.22,0.06
			s0.16,0.04,0.24,0.06s0.15,0.06,0.22,0.1c0.07,0.04,0.12,0.09,0.16,0.16c0.04,0.07,0.06,0.15,0.06,0.25c0,0.1-0.03,0.2-0.08,0.28
			c-0.06,0.09-0.14,0.16-0.26,0.21S3.26,13.86,3.08,13.86z"/>
		<path class="st2" d="M4.35,12.12c-0.06,0-0.12-0.02-0.16-0.06c-0.04-0.04-0.06-0.09-0.06-0.15c0-0.06,0.02-0.1,0.06-0.14
			c0.04-0.04,0.09-0.06,0.16-0.06s0.12,0.02,0.16,0.06c0.04,0.04,0.06,0.09,0.06,0.14s-0.02,0.11-0.06,0.15
			C4.47,12.1,4.42,12.12,4.35,12.12z M4.18,13.83v-1.47h0.34v1.47H4.18z"/>
		<path class="st2" d="M5.43,13.85c-0.12,0-0.24-0.02-0.35-0.05c-0.11-0.03-0.2-0.07-0.27-0.12l0.13-0.26
			c0.07,0.04,0.14,0.08,0.24,0.1c0.09,0.03,0.18,0.04,0.28,0.04c0.11,0,0.18-0.01,0.23-0.04c0.05-0.03,0.07-0.07,0.07-0.12
			c0-0.04-0.02-0.07-0.05-0.09c-0.03-0.02-0.08-0.04-0.13-0.05c-0.05-0.01-0.11-0.02-0.18-0.03s-0.13-0.02-0.19-0.04
			s-0.12-0.04-0.18-0.07c-0.05-0.03-0.1-0.07-0.13-0.12c-0.03-0.05-0.05-0.12-0.05-0.21c0-0.09,0.03-0.17,0.08-0.24
			s0.13-0.12,0.22-0.16c0.1-0.04,0.21-0.06,0.34-0.06c0.1,0,0.2,0.01,0.3,0.03s0.19,0.05,0.25,0.09l-0.13,0.26
			c-0.07-0.04-0.14-0.07-0.21-0.08s-0.14-0.02-0.21-0.02c-0.1,0-0.18,0.02-0.23,0.05s-0.08,0.07-0.08,0.12
			c0,0.04,0.02,0.08,0.05,0.1c0.03,0.02,0.08,0.04,0.13,0.05c0.05,0.01,0.11,0.02,0.18,0.03S5.67,13,5.73,13.01
			c0.06,0.02,0.12,0.04,0.18,0.07c0.05,0.03,0.1,0.07,0.13,0.12c0.03,0.05,0.05,0.12,0.05,0.2c0,0.09-0.03,0.17-0.08,0.24
			c-0.05,0.07-0.13,0.12-0.23,0.16C5.68,13.83,5.57,13.85,5.43,13.85z"/>
		<path class="st2" d="M6.19,12.64v-0.27h0.98v0.27H6.19z M6.94,13.85c-0.16,0-0.29-0.04-0.37-0.13s-0.13-0.21-0.13-0.37v-1.32h0.34
			v1.31c0,0.07,0.02,0.12,0.06,0.16c0.04,0.04,0.09,0.06,0.15,0.06c0.08,0,0.14-0.02,0.19-0.06l0.1,0.25
			c-0.04,0.03-0.09,0.06-0.15,0.07C7.06,13.84,7,13.85,6.94,13.85z"/>
		<path class="st2" d="M8.18,13.85c-0.16,0-0.3-0.03-0.43-0.1c-0.12-0.07-0.22-0.15-0.28-0.27c-0.07-0.11-0.1-0.24-0.1-0.39
			s0.03-0.28,0.1-0.39s0.15-0.2,0.27-0.27c0.11-0.07,0.24-0.1,0.39-0.1c0.14,0,0.27,0.03,0.38,0.09c0.11,0.06,0.2,0.15,0.26,0.26
			s0.1,0.25,0.1,0.4c0,0.01,0,0.03,0,0.05s0,0.04,0,0.05H7.65v-0.23h1.04l-0.14,0.07c0-0.08-0.02-0.16-0.05-0.22
			c-0.04-0.07-0.08-0.12-0.15-0.15c-0.06-0.04-0.14-0.05-0.22-0.05c-0.08,0-0.16,0.02-0.22,0.05c-0.06,0.04-0.11,0.09-0.15,0.15
			c-0.03,0.07-0.05,0.14-0.05,0.23v0.06c0,0.09,0.02,0.17,0.06,0.23c0.04,0.07,0.1,0.12,0.17,0.16c0.07,0.04,0.16,0.06,0.25,0.06
			c0.08,0,0.16-0.01,0.22-0.04c0.07-0.03,0.12-0.07,0.18-0.12l0.19,0.21c-0.07,0.08-0.15,0.14-0.25,0.18S8.31,13.85,8.18,13.85z"/>
		<path class="st2" d="M9.2,13.83v-1.47h0.33v0.39l-0.06-0.12c0.05-0.09,0.12-0.17,0.22-0.22c0.09-0.05,0.2-0.08,0.33-0.08
			c0.14,0,0.26,0.03,0.36,0.1c0.1,0.07,0.17,0.17,0.2,0.31l-0.13-0.05c0.05-0.11,0.12-0.2,0.23-0.26c0.11-0.07,0.24-0.1,0.38-0.1
			c0.12,0,0.22,0.02,0.31,0.07c0.09,0.05,0.16,0.12,0.21,0.21c0.05,0.1,0.08,0.22,0.08,0.37v0.84h-0.34v-0.8
			c0-0.13-0.03-0.23-0.09-0.29c-0.06-0.06-0.14-0.1-0.25-0.1c-0.08,0-0.14,0.02-0.2,0.05c-0.06,0.03-0.1,0.08-0.13,0.15
			c-0.03,0.06-0.05,0.15-0.05,0.24v0.74h-0.34v-0.8c0-0.13-0.03-0.23-0.09-0.29c-0.06-0.06-0.14-0.1-0.25-0.1
			c-0.08,0-0.14,0.02-0.2,0.05c-0.06,0.03-0.1,0.08-0.13,0.15c-0.03,0.06-0.05,0.15-0.05,0.24v0.74H9.2z"/>
		<path class="st2" d="M12.53,13.85c-0.11,0-0.21-0.02-0.29-0.06c-0.08-0.04-0.15-0.09-0.19-0.16s-0.07-0.14-0.07-0.23
			c0-0.08,0.02-0.16,0.06-0.22c0.04-0.07,0.1-0.12,0.19-0.16c0.09-0.04,0.21-0.06,0.36-0.06h0.43v0.23h-0.4
			c-0.12,0-0.19,0.02-0.23,0.06c-0.04,0.04-0.06,0.08-0.06,0.14c0,0.06,0.02,0.11,0.07,0.15c0.05,0.04,0.12,0.05,0.21,0.05
			c0.08,0,0.16-0.02,0.23-0.06c0.07-0.04,0.12-0.09,0.15-0.17l0.05,0.21c-0.03,0.09-0.09,0.15-0.18,0.2
			C12.77,13.83,12.67,13.85,12.53,13.85z M12.99,13.83v-0.3l-0.02-0.06v-0.52c0-0.1-0.03-0.18-0.09-0.23
			c-0.06-0.06-0.15-0.08-0.28-0.08c-0.08,0-0.16,0.01-0.24,0.04c-0.08,0.03-0.15,0.06-0.2,0.11l-0.13-0.25
			c0.08-0.06,0.17-0.11,0.28-0.14c0.11-0.03,0.22-0.05,0.34-0.05c0.21,0,0.38,0.05,0.49,0.15s0.17,0.26,0.17,0.47v0.86H12.99z"/>
		<path class="st2" d="M15.13,13.85c-0.14,0-0.27-0.03-0.38-0.09c-0.11-0.06-0.2-0.15-0.27-0.26s-0.1-0.25-0.1-0.4
			c0-0.15,0.03-0.28,0.1-0.4s0.15-0.2,0.27-0.26c0.11-0.06,0.24-0.09,0.38-0.09c0.12,0,0.23,0.03,0.33,0.08
			c0.1,0.05,0.17,0.14,0.23,0.25c0.06,0.11,0.09,0.25,0.09,0.42c0,0.17-0.03,0.31-0.08,0.42c-0.05,0.11-0.13,0.2-0.23,0.25
			C15.37,13.82,15.26,13.85,15.13,13.85z M15.17,13.56c0.08,0,0.16-0.02,0.22-0.06c0.06-0.04,0.12-0.09,0.16-0.16
			c0.04-0.07,0.06-0.15,0.06-0.24c0-0.09-0.02-0.17-0.06-0.24s-0.09-0.12-0.16-0.16s-0.14-0.06-0.22-0.06
			c-0.08,0-0.16,0.02-0.22,0.06s-0.12,0.09-0.16,0.16c-0.04,0.07-0.06,0.15-0.06,0.24c0,0.09,0.02,0.17,0.06,0.24
			c0.04,0.07,0.09,0.13,0.16,0.16C15.01,13.54,15.09,13.56,15.17,13.56z M15.62,13.83v-0.35l0.01-0.39l-0.03-0.39V11.8h0.35v2.04
			H15.62z"/>
		<path class="st2" d="M17.08,13.85c-0.16,0-0.3-0.03-0.43-0.1c-0.12-0.07-0.22-0.15-0.28-0.27c-0.07-0.11-0.1-0.24-0.1-0.39
			s0.03-0.28,0.1-0.39s0.15-0.2,0.27-0.27c0.11-0.07,0.24-0.1,0.39-0.1c0.14,0,0.27,0.03,0.38,0.09c0.11,0.06,0.2,0.15,0.26,0.26
			c0.06,0.11,0.1,0.25,0.1,0.4c0,0.01,0,0.03,0,0.05c0,0.02,0,0.04,0,0.05h-1.22v-0.23h1.04l-0.14,0.07c0-0.08-0.02-0.16-0.05-0.22
			c-0.04-0.07-0.08-0.12-0.15-0.15c-0.06-0.04-0.14-0.05-0.22-0.05c-0.08,0-0.16,0.02-0.22,0.05c-0.06,0.04-0.11,0.09-0.15,0.15
			c-0.03,0.07-0.05,0.14-0.05,0.23v0.06c0,0.09,0.02,0.17,0.06,0.23c0.04,0.07,0.1,0.12,0.17,0.16c0.07,0.04,0.16,0.06,0.25,0.06
			c0.08,0,0.16-0.01,0.22-0.04c0.07-0.03,0.13-0.07,0.18-0.12l0.19,0.21c-0.07,0.08-0.15,0.14-0.25,0.18S17.21,13.85,17.08,13.85z"
			/>
		<path class="st2" d="M19.78,13.86c-0.15,0-0.29-0.02-0.41-0.07c-0.13-0.05-0.23-0.12-0.33-0.21c-0.09-0.09-0.16-0.19-0.22-0.31
			c-0.05-0.12-0.08-0.25-0.08-0.39s0.03-0.28,0.08-0.4c0.05-0.12,0.12-0.22,0.22-0.31c0.09-0.09,0.2-0.16,0.33-0.21
			c0.12-0.05,0.26-0.07,0.41-0.07c0.16,0,0.3,0.03,0.43,0.08s0.24,0.13,0.33,0.24l-0.23,0.22c-0.07-0.08-0.15-0.13-0.24-0.17
			c-0.09-0.04-0.18-0.06-0.28-0.06c-0.1,0-0.19,0.02-0.28,0.05s-0.16,0.08-0.22,0.14s-0.11,0.13-0.14,0.21
			c-0.03,0.08-0.05,0.17-0.05,0.27c0,0.1,0.02,0.19,0.05,0.27c0.04,0.08,0.08,0.15,0.14,0.21s0.13,0.11,0.22,0.14
			s0.17,0.05,0.28,0.05c0.1,0,0.19-0.02,0.28-0.06c0.09-0.04,0.17-0.09,0.24-0.17l0.23,0.22c-0.09,0.11-0.2,0.19-0.33,0.24
			S19.93,13.86,19.78,13.86z"/>
		<path class="st2" d="M21.41,13.85c-0.15,0-0.28-0.03-0.4-0.1c-0.12-0.07-0.21-0.15-0.28-0.27c-0.07-0.11-0.1-0.24-0.1-0.39
			c0-0.15,0.03-0.28,0.1-0.39c0.07-0.11,0.16-0.2,0.28-0.26c0.12-0.07,0.25-0.1,0.4-0.1c0.15,0,0.29,0.03,0.4,0.1
			c0.12,0.06,0.21,0.15,0.28,0.26c0.07,0.11,0.1,0.24,0.1,0.39c0,0.15-0.03,0.28-0.1,0.39c-0.07,0.11-0.16,0.2-0.28,0.27
			C21.7,13.82,21.56,13.85,21.41,13.85z M21.41,13.56c0.08,0,0.16-0.02,0.22-0.06c0.07-0.04,0.12-0.09,0.16-0.16
			c0.04-0.07,0.06-0.15,0.06-0.24c0-0.09-0.02-0.17-0.06-0.24s-0.09-0.12-0.16-0.16c-0.07-0.04-0.14-0.06-0.22-0.06
			c-0.08,0-0.16,0.02-0.22,0.06s-0.12,0.09-0.16,0.16s-0.06,0.15-0.06,0.24c0,0.09,0.02,0.17,0.06,0.24
			c0.04,0.07,0.09,0.13,0.16,0.16C21.26,13.54,21.33,13.56,21.41,13.56z"/>
		<path class="st2" d="M22.53,13.83v-1.47h0.33v0.4l-0.06-0.12c0.05-0.09,0.12-0.17,0.22-0.22c0.1-0.05,0.21-0.08,0.34-0.08
			c0.12,0,0.22,0.02,0.31,0.07c0.09,0.05,0.16,0.12,0.22,0.21c0.05,0.1,0.08,0.22,0.08,0.37v0.84h-0.34v-0.8
			c0-0.13-0.03-0.23-0.09-0.29c-0.06-0.06-0.15-0.1-0.26-0.1c-0.08,0-0.15,0.02-0.21,0.05c-0.06,0.03-0.11,0.08-0.14,0.15
			c-0.03,0.06-0.05,0.15-0.05,0.25v0.74H22.53z"/>
		<path class="st2" d="M24.21,12.64v-0.27h0.98v0.27H24.21z M24.96,13.85c-0.16,0-0.29-0.04-0.37-0.13s-0.13-0.21-0.13-0.37v-1.32
			h0.34v1.31c0,0.07,0.02,0.12,0.05,0.16c0.04,0.04,0.09,0.06,0.15,0.06c0.08,0,0.14-0.02,0.19-0.06l0.1,0.25
			c-0.04,0.03-0.09,0.06-0.15,0.07C25.08,13.84,25.02,13.85,24.96,13.85z"/>
		<path class="st2" d="M25.57,13.83v-1.47h0.33v0.4l-0.04-0.12c0.04-0.1,0.11-0.17,0.21-0.23c0.09-0.05,0.21-0.08,0.35-0.08v0.33
			c-0.01,0-0.03,0-0.04,0c-0.01,0-0.03,0-0.04,0c-0.13,0-0.24,0.04-0.31,0.11c-0.08,0.08-0.12,0.19-0.12,0.34v0.71H25.57z"/>
		<path class="st2" d="M27.34,13.85c-0.15,0-0.28-0.03-0.4-0.1c-0.12-0.07-0.21-0.15-0.28-0.27c-0.07-0.11-0.1-0.24-0.1-0.39
			c0-0.15,0.03-0.28,0.1-0.39c0.07-0.11,0.16-0.2,0.28-0.26c0.12-0.07,0.25-0.1,0.4-0.1c0.15,0,0.29,0.03,0.4,0.1
			c0.12,0.06,0.21,0.15,0.28,0.26c0.07,0.11,0.1,0.24,0.1,0.39c0,0.15-0.03,0.28-0.1,0.39c-0.07,0.11-0.16,0.2-0.28,0.27
			C27.62,13.82,27.49,13.85,27.34,13.85z M27.34,13.56c0.08,0,0.16-0.02,0.22-0.06c0.07-0.04,0.12-0.09,0.16-0.16
			c0.04-0.07,0.06-0.15,0.06-0.24c0-0.09-0.02-0.17-0.06-0.24s-0.09-0.12-0.16-0.16c-0.07-0.04-0.14-0.06-0.22-0.06
			c-0.08,0-0.16,0.02-0.22,0.06s-0.12,0.09-0.16,0.16s-0.06,0.15-0.06,0.24c0,0.09,0.02,0.17,0.06,0.24
			c0.04,0.07,0.09,0.13,0.16,0.16C27.18,13.54,27.26,13.56,27.34,13.56z"/>
		<path class="st2" d="M28.45,13.83V11.8h0.34v2.04H28.45z"/>
		<path class="st2" d="M2.15,17.14c-0.14,0-0.27-0.03-0.38-0.09c-0.11-0.06-0.2-0.15-0.27-0.26s-0.1-0.25-0.1-0.4
			c0-0.15,0.03-0.28,0.1-0.4c0.06-0.11,0.15-0.2,0.27-0.26c0.11-0.06,0.24-0.09,0.38-0.09c0.12,0,0.23,0.03,0.33,0.08
			c0.1,0.05,0.17,0.14,0.23,0.25c0.06,0.11,0.09,0.25,0.09,0.42c0,0.17-0.03,0.31-0.08,0.42c-0.05,0.11-0.13,0.2-0.23,0.25
			C2.39,17.12,2.27,17.14,2.15,17.14z M2.19,16.85c0.08,0,0.16-0.02,0.22-0.06c0.06-0.04,0.12-0.09,0.16-0.16
			c0.04-0.07,0.06-0.15,0.06-0.24c0-0.09-0.02-0.17-0.06-0.24s-0.09-0.12-0.16-0.16c-0.06-0.04-0.14-0.06-0.22-0.06
			c-0.08,0-0.16,0.02-0.22,0.06c-0.06,0.04-0.12,0.09-0.16,0.16c-0.04,0.07-0.06,0.15-0.06,0.24c0,0.09,0.02,0.17,0.06,0.24
			c0.04,0.07,0.09,0.13,0.16,0.16C2.03,16.83,2.1,16.85,2.19,16.85z M2.63,17.12v-0.35l0.01-0.39L2.61,16v-0.91h0.35v2.04H2.63z"/>
		<path class="st2" d="M4.1,17.14c-0.16,0-0.3-0.03-0.43-0.1c-0.12-0.07-0.22-0.15-0.28-0.27c-0.07-0.11-0.1-0.24-0.1-0.39
			s0.03-0.28,0.1-0.39c0.06-0.11,0.15-0.2,0.27-0.27c0.11-0.07,0.24-0.1,0.39-0.1c0.14,0,0.27,0.03,0.38,0.09
			c0.11,0.06,0.2,0.15,0.26,0.26c0.06,0.11,0.1,0.25,0.1,0.4c0,0.01,0,0.03,0,0.05s0,0.04,0,0.05H3.56v-0.23H4.6l-0.14,0.07
			c0-0.08-0.02-0.16-0.05-0.22c-0.04-0.07-0.08-0.12-0.15-0.15c-0.06-0.04-0.14-0.05-0.22-0.05c-0.08,0-0.16,0.02-0.22,0.05
			c-0.06,0.04-0.11,0.09-0.15,0.15c-0.03,0.07-0.05,0.14-0.05,0.23v0.06c0,0.09,0.02,0.17,0.06,0.23c0.04,0.07,0.1,0.12,0.17,0.16
			c0.07,0.04,0.16,0.06,0.25,0.06c0.08,0,0.16-0.01,0.22-0.04c0.07-0.03,0.12-0.07,0.18-0.12l0.19,0.21
			c-0.07,0.08-0.15,0.14-0.25,0.18S4.22,17.14,4.1,17.14z"/>
		<path class="st2" d="M6.8,17.15c-0.15,0-0.29-0.02-0.41-0.07c-0.13-0.05-0.23-0.12-0.33-0.21c-0.09-0.09-0.17-0.19-0.22-0.31
			c-0.05-0.12-0.08-0.25-0.08-0.39s0.03-0.28,0.08-0.4c0.05-0.12,0.12-0.22,0.22-0.31c0.09-0.09,0.2-0.16,0.33-0.21
			c0.13-0.05,0.26-0.07,0.42-0.07c0.16,0,0.31,0.03,0.44,0.08c0.13,0.05,0.24,0.13,0.33,0.23l-0.22,0.22
			c-0.08-0.08-0.16-0.13-0.24-0.17c-0.09-0.04-0.18-0.05-0.29-0.05c-0.1,0-0.2,0.02-0.28,0.05s-0.16,0.08-0.22,0.14
			c-0.06,0.06-0.11,0.13-0.15,0.21c-0.04,0.08-0.05,0.17-0.05,0.27c0,0.1,0.02,0.19,0.05,0.27c0.03,0.08,0.08,0.16,0.15,0.22
			c0.06,0.06,0.14,0.11,0.22,0.14s0.18,0.05,0.28,0.05c0.1,0,0.19-0.02,0.28-0.05s0.17-0.08,0.25-0.15l0.2,0.27
			c-0.1,0.08-0.21,0.14-0.35,0.18S6.94,17.15,6.8,17.15z M7.55,16.91l-0.33-0.05v-0.72h0.33V16.91z"/>
		<path class="st2" d="M8.67,17.14c-0.16,0-0.3-0.03-0.43-0.1c-0.12-0.07-0.22-0.15-0.28-0.27c-0.07-0.11-0.1-0.24-0.1-0.39
			S7.9,16.12,7.96,16c0.06-0.11,0.15-0.2,0.27-0.27c0.11-0.07,0.24-0.1,0.39-0.1c0.14,0,0.27,0.03,0.38,0.09
			C9.11,15.8,9.2,15.89,9.27,16c0.06,0.11,0.1,0.25,0.1,0.4c0,0.01,0,0.03,0,0.05s0,0.04,0,0.05H8.14v-0.23h1.04l-0.14,0.07
			c0-0.08-0.02-0.16-0.05-0.22c-0.04-0.07-0.08-0.12-0.15-0.15c-0.06-0.04-0.14-0.05-0.22-0.05c-0.08,0-0.16,0.02-0.22,0.05
			c-0.06,0.04-0.11,0.09-0.15,0.15c-0.03,0.07-0.05,0.14-0.05,0.23v0.06c0,0.09,0.02,0.17,0.06,0.23c0.04,0.07,0.1,0.12,0.17,0.16
			c0.07,0.04,0.16,0.06,0.25,0.06c0.08,0,0.16-0.01,0.22-0.04c0.07-0.03,0.12-0.07,0.18-0.12l0.19,0.21
			c-0.07,0.08-0.15,0.14-0.25,0.18S8.8,17.14,8.67,17.14z"/>
		<path class="st2" d="M10.15,17.14c-0.12,0-0.24-0.02-0.35-0.05c-0.11-0.03-0.2-0.07-0.27-0.12l0.13-0.26
			c0.07,0.04,0.14,0.08,0.24,0.1c0.09,0.03,0.18,0.04,0.28,0.04c0.11,0,0.18-0.01,0.23-0.04c0.05-0.03,0.07-0.07,0.07-0.12
			c0-0.04-0.02-0.07-0.05-0.09c-0.03-0.02-0.08-0.04-0.13-0.05c-0.05-0.01-0.11-0.02-0.18-0.03s-0.13-0.02-0.19-0.04
			s-0.12-0.04-0.18-0.07c-0.05-0.03-0.1-0.07-0.13-0.12c-0.03-0.05-0.05-0.12-0.05-0.21c0-0.09,0.03-0.17,0.08-0.24
			s0.13-0.12,0.22-0.16c0.1-0.04,0.21-0.06,0.34-0.06c0.1,0,0.2,0.01,0.3,0.03s0.19,0.05,0.25,0.09l-0.13,0.26
			c-0.07-0.04-0.14-0.07-0.21-0.08s-0.14-0.02-0.21-0.02c-0.1,0-0.18,0.02-0.23,0.05S9.9,16.04,9.9,16.08c0,0.04,0.02,0.08,0.05,0.1
			c0.03,0.02,0.08,0.04,0.13,0.05c0.05,0.01,0.11,0.02,0.18,0.03s0.13,0.02,0.19,0.04c0.06,0.02,0.12,0.04,0.18,0.07
			c0.05,0.03,0.1,0.07,0.13,0.12c0.03,0.05,0.05,0.12,0.05,0.2c0,0.09-0.03,0.17-0.08,0.24c-0.05,0.07-0.13,0.12-0.23,0.16
			C10.4,17.12,10.28,17.14,10.15,17.14z"/>
		<path class="st2" d="M10.91,15.93v-0.27h0.98v0.27H10.91z M11.66,17.14c-0.16,0-0.29-0.04-0.37-0.13s-0.13-0.21-0.13-0.37v-1.32
			h0.34v1.31c0,0.07,0.02,0.12,0.06,0.16c0.04,0.04,0.09,0.06,0.15,0.06c0.08,0,0.14-0.02,0.19-0.06l0.1,0.25
			c-0.04,0.03-0.09,0.06-0.15,0.07C11.78,17.14,11.72,17.14,11.66,17.14z"/>
		<path class="st2" d="M12.44,15.42c-0.06,0-0.12-0.02-0.16-0.06c-0.04-0.04-0.06-0.09-0.06-0.15c0-0.06,0.02-0.1,0.06-0.14
			c0.04-0.04,0.09-0.06,0.16-0.06s0.12,0.02,0.16,0.06c0.04,0.04,0.06,0.09,0.06,0.14s-0.02,0.11-0.06,0.15
			C12.56,15.4,12.51,15.42,12.44,15.42z M12.27,17.12v-1.47h0.34v1.47H12.27z"/>
		<path class="st2" d="M13.72,17.14c-0.15,0-0.28-0.03-0.4-0.1c-0.12-0.07-0.21-0.15-0.28-0.27c-0.07-0.11-0.1-0.24-0.1-0.39
			c0-0.15,0.03-0.28,0.1-0.39c0.07-0.11,0.16-0.2,0.28-0.26c0.12-0.07,0.25-0.1,0.4-0.1c0.15,0,0.29,0.03,0.4,0.1
			c0.12,0.06,0.21,0.15,0.28,0.26c0.07,0.11,0.1,0.24,0.1,0.39c0,0.15-0.03,0.28-0.1,0.39c-0.07,0.11-0.16,0.2-0.28,0.27
			C14.01,17.11,13.87,17.14,13.72,17.14z M13.72,16.85c0.08,0,0.16-0.02,0.22-0.06c0.07-0.04,0.12-0.09,0.16-0.16
			c0.04-0.07,0.06-0.15,0.06-0.24c0-0.09-0.02-0.17-0.06-0.24s-0.09-0.12-0.16-0.16c-0.07-0.04-0.14-0.06-0.22-0.06
			c-0.08,0-0.16,0.02-0.22,0.06c-0.07,0.04-0.12,0.09-0.16,0.16c-0.04,0.07-0.06,0.15-0.06,0.24c0,0.09,0.02,0.17,0.06,0.24
			c0.04,0.07,0.09,0.13,0.16,0.16C13.57,16.83,13.64,16.85,13.72,16.85z M13.49,15.46l0.37-0.38h0.41l-0.48,0.38H13.49z"/>
		<path class="st2" d="M14.84,17.12v-1.47h0.33v0.4l-0.06-0.12c0.05-0.09,0.12-0.17,0.22-0.22c0.1-0.05,0.21-0.08,0.34-0.08
			c0.12,0,0.22,0.02,0.31,0.07c0.09,0.05,0.16,0.12,0.22,0.21c0.05,0.1,0.08,0.22,0.08,0.37v0.84h-0.34v-0.8
			c0-0.13-0.03-0.23-0.09-0.29c-0.06-0.06-0.15-0.1-0.26-0.1c-0.08,0-0.15,0.02-0.21,0.05c-0.06,0.03-0.11,0.08-0.14,0.15
			c-0.03,0.06-0.05,0.15-0.05,0.25v0.74H14.84z"/>
		<path class="st2" d="M17.89,17.12v-1.62h-0.64v-0.3h1.63v0.3h-0.64v1.62H17.89z"/>
		<path class="st2" d="M19.66,17.14c-0.16,0-0.31-0.03-0.43-0.1c-0.12-0.07-0.22-0.15-0.28-0.27c-0.07-0.11-0.1-0.24-0.1-0.39
			s0.03-0.28,0.1-0.39c0.06-0.11,0.15-0.2,0.27-0.27c0.11-0.07,0.24-0.1,0.39-0.1c0.14,0,0.27,0.03,0.38,0.09
			c0.11,0.06,0.2,0.15,0.26,0.26c0.06,0.11,0.1,0.25,0.1,0.4c0,0.01,0,0.03,0,0.05s0,0.04,0,0.05h-1.22v-0.23h1.04l-0.14,0.07
			c0-0.08-0.01-0.16-0.05-0.22c-0.04-0.07-0.08-0.12-0.15-0.15c-0.06-0.04-0.14-0.05-0.22-0.05c-0.08,0-0.16,0.02-0.22,0.05
			c-0.06,0.04-0.11,0.09-0.15,0.15c-0.04,0.07-0.05,0.14-0.05,0.23v0.06c0,0.09,0.02,0.17,0.06,0.23c0.04,0.07,0.1,0.12,0.17,0.16
			s0.16,0.06,0.25,0.06c0.08,0,0.16-0.01,0.22-0.04c0.07-0.03,0.12-0.07,0.18-0.12l0.19,0.21c-0.07,0.08-0.15,0.14-0.25,0.18
			C19.9,17.12,19.79,17.14,19.66,17.14z"/>
		<path class="st2" d="M20.68,17.12v-1.47h0.33v0.4l-0.04-0.12c0.04-0.1,0.11-0.17,0.21-0.23c0.09-0.05,0.21-0.08,0.35-0.08v0.33
			c-0.01,0-0.03,0-0.04,0c-0.01,0-0.03,0-0.04,0c-0.13,0-0.24,0.04-0.31,0.11c-0.08,0.08-0.12,0.19-0.12,0.34v0.71H20.68z"/>
		<path class="st2" d="M21.8,17.12v-1.47h0.33v0.4l-0.04-0.12c0.04-0.1,0.11-0.17,0.21-0.23c0.09-0.05,0.21-0.08,0.35-0.08v0.33
			c-0.01,0-0.03,0-0.04,0c-0.01,0-0.03,0-0.04,0c-0.13,0-0.24,0.04-0.31,0.11c-0.08,0.08-0.12,0.19-0.12,0.34v0.71H21.8z"/>
		<path class="st2" d="M23.1,15.42c-0.06,0-0.12-0.02-0.16-0.06c-0.04-0.04-0.06-0.09-0.06-0.15c0-0.06,0.02-0.1,0.06-0.14
			c0.04-0.04,0.09-0.06,0.16-0.06c0.06,0,0.12,0.02,0.16,0.06c0.04,0.04,0.06,0.09,0.06,0.14s-0.02,0.11-0.06,0.15
			C23.22,15.4,23.17,15.42,23.1,15.42z M22.93,17.12v-1.47h0.34v1.47H22.93z"/>
		<path class="st2" d="M23.47,15.93v-0.27h0.98v0.27H23.47z M24.22,17.14c-0.16,0-0.29-0.04-0.37-0.13s-0.13-0.21-0.13-0.37v-1.32
			h0.34v1.31c0,0.07,0.02,0.12,0.05,0.16c0.04,0.04,0.09,0.06,0.15,0.06c0.08,0,0.14-0.02,0.19-0.06l0.1,0.25
			c-0.04,0.03-0.09,0.06-0.15,0.07C24.34,17.14,24.28,17.14,24.22,17.14z"/>
		<path class="st2" d="M25.43,17.14c-0.15,0-0.28-0.03-0.4-0.1c-0.12-0.07-0.21-0.15-0.28-0.27c-0.07-0.11-0.1-0.24-0.1-0.39
			c0-0.15,0.03-0.28,0.1-0.39c0.07-0.11,0.16-0.2,0.28-0.26c0.12-0.07,0.25-0.1,0.4-0.1c0.15,0,0.29,0.03,0.4,0.1
			c0.12,0.06,0.21,0.15,0.28,0.26c0.07,0.11,0.1,0.24,0.1,0.39c0,0.15-0.03,0.28-0.1,0.39c-0.07,0.11-0.16,0.2-0.28,0.27
			C25.72,17.11,25.58,17.14,25.43,17.14z M25.43,16.85c0.08,0,0.16-0.02,0.22-0.06c0.07-0.04,0.12-0.09,0.16-0.16
			c0.04-0.07,0.06-0.15,0.06-0.24c0-0.09-0.02-0.17-0.06-0.24s-0.09-0.12-0.16-0.16c-0.07-0.04-0.14-0.06-0.22-0.06
			c-0.08,0-0.16,0.02-0.22,0.06c-0.07,0.04-0.12,0.09-0.16,0.16S25,16.3,25,16.39c0,0.09,0.02,0.17,0.06,0.24
			c0.04,0.07,0.09,0.13,0.16,0.16C25.28,16.83,25.35,16.85,25.43,16.85z"/>
		<path class="st2" d="M26.55,17.12v-1.47h0.33v0.4l-0.04-0.12c0.04-0.1,0.11-0.17,0.21-0.23c0.09-0.05,0.21-0.08,0.35-0.08v0.33
			c-0.01,0-0.03,0-0.04,0c-0.01,0-0.03,0-0.04,0c-0.13,0-0.24,0.04-0.31,0.11c-0.08,0.08-0.12,0.19-0.12,0.34v0.71H26.55z"/>
		<path class="st2" d="M27.84,15.42c-0.06,0-0.12-0.02-0.16-0.06c-0.04-0.04-0.06-0.09-0.06-0.15c0-0.06,0.02-0.1,0.06-0.14
			c0.04-0.04,0.09-0.06,0.16-0.06c0.06,0,0.12,0.02,0.16,0.06c0.04,0.04,0.06,0.09,0.06,0.14s-0.02,0.11-0.06,0.15
			C27.96,15.4,27.91,15.42,27.84,15.42z M27.67,17.12v-1.47h0.34v1.47H27.67z"/>
		<path class="st2" d="M28.91,17.14c-0.11,0-0.21-0.02-0.29-0.06c-0.08-0.04-0.15-0.09-0.19-0.16c-0.04-0.07-0.07-0.14-0.07-0.23
			c0-0.08,0.02-0.16,0.06-0.22c0.04-0.07,0.1-0.12,0.19-0.16c0.09-0.04,0.21-0.06,0.36-0.06h0.43v0.23H29
			c-0.12,0-0.19,0.02-0.24,0.06c-0.04,0.04-0.06,0.08-0.06,0.14c0,0.06,0.03,0.11,0.07,0.15c0.05,0.04,0.12,0.05,0.21,0.05
			c0.08,0,0.16-0.02,0.23-0.06c0.07-0.04,0.12-0.09,0.15-0.17l0.05,0.21c-0.03,0.09-0.09,0.15-0.18,0.2
			C29.15,17.12,29.04,17.14,28.91,17.14z M29.37,17.12v-0.3l-0.02-0.06v-0.52c0-0.1-0.03-0.18-0.09-0.23
			c-0.06-0.06-0.15-0.08-0.28-0.08c-0.08,0-0.16,0.01-0.24,0.04c-0.08,0.03-0.15,0.06-0.2,0.11l-0.13-0.25
			c0.08-0.06,0.17-0.11,0.28-0.14c0.11-0.03,0.22-0.05,0.34-0.05c0.21,0,0.38,0.05,0.49,0.15s0.17,0.26,0.17,0.47v0.86H29.37z"/>
		<path class="st2" d="M30.13,17.12v-2.04h0.34v2.04H30.13z"/>
	</g>
	<polygon class="st2" points="31.43,10.98 0,10.98 0.61,10.36 32,10.36 	"/>
	<g>
	</g>
	<g>
	</g>
	<g>
	</g>
	<g>
	</g>
	<g>
	</g>
	<g>
	</g>
</g>
</svg>
