<?xml version="1.0" encoding="utf-8"?>
<!-- Generator: Adobe Illustrator 25.2.3, SVG Export Plug-In . SVG Version: 6.00 Build 0)  -->
<svg version="1.1" id="Capa_1" xmlns="http://www.w3.org/2000/svg" xmlns:xlink="http://www.w3.org/1999/xlink" x="0px" y="0px"
	 viewBox="0 0 32 10.42" style="enable-background:new 0 0 32 10.42;" xml:space="preserve">
<style type="text/css">
	.st0{display:none;}
	.st1{display:inline;fill:#1C7873;}
	.st2{display:none;fill:#1C7873;}
	.st3{fill:#1C7873;}
</style>
<g>
	<g class="st0">
		<path class="st1" d="M5.1,14.47c-0.12,0-0.24-0.02-0.35-0.06c-0.11-0.04-0.2-0.09-0.27-0.15l0.09-0.18
			c0.06,0.05,0.14,0.1,0.24,0.13c0.1,0.04,0.19,0.05,0.3,0.05c0.09,0,0.17-0.01,0.23-0.03c0.06-0.02,0.1-0.05,0.13-0.09
			c0.03-0.04,0.04-0.08,0.04-0.13c0-0.05-0.02-0.1-0.05-0.13c-0.04-0.03-0.08-0.06-0.14-0.08c-0.06-0.02-0.12-0.04-0.19-0.05
			s-0.14-0.03-0.21-0.05c-0.07-0.02-0.13-0.05-0.19-0.08c-0.06-0.03-0.1-0.08-0.14-0.13s-0.05-0.13-0.05-0.21
			c0-0.08,0.02-0.16,0.07-0.23c0.04-0.07,0.11-0.13,0.2-0.17c0.09-0.04,0.21-0.06,0.35-0.06c0.09,0,0.19,0.01,0.28,0.04
			c0.09,0.02,0.17,0.06,0.24,0.11l-0.08,0.19c-0.07-0.05-0.14-0.08-0.22-0.1c-0.08-0.02-0.15-0.03-0.22-0.03
			c-0.09,0-0.17,0.01-0.22,0.04s-0.1,0.05-0.13,0.09c-0.03,0.04-0.04,0.08-0.04,0.13c0,0.06,0.02,0.1,0.05,0.14
			c0.04,0.04,0.08,0.06,0.14,0.08c0.06,0.02,0.12,0.04,0.19,0.05c0.07,0.02,0.14,0.04,0.21,0.05c0.07,0.02,0.13,0.05,0.19,0.08
			c0.06,0.03,0.1,0.08,0.14,0.13c0.04,0.05,0.05,0.12,0.05,0.21c0,0.08-0.02,0.16-0.07,0.23c-0.04,0.07-0.11,0.13-0.21,0.17
			C5.36,14.45,5.25,14.47,5.1,14.47z"/>
		<path class="st1" d="M6.15,13c-0.04,0-0.08-0.02-0.11-0.04C6.01,12.93,6,12.89,6,12.85s0.01-0.08,0.04-0.1
			c0.03-0.03,0.06-0.04,0.11-0.04c0.04,0,0.08,0.01,0.11,0.04c0.03,0.03,0.04,0.06,0.04,0.1s-0.01,0.08-0.04,0.11
			C6.23,12.98,6.19,13,6.15,13z M6.04,14.46v-1.22h0.22v1.22H6.04z"/>
		<path class="st1" d="M7.03,14.47c-0.1,0-0.2-0.01-0.29-0.04c-0.09-0.03-0.16-0.06-0.22-0.1l0.09-0.18
			c0.05,0.04,0.12,0.06,0.19,0.09c0.08,0.02,0.16,0.04,0.24,0.04c0.1,0,0.18-0.02,0.22-0.04s0.07-0.07,0.07-0.12
			c0-0.04-0.01-0.07-0.04-0.09C7.27,14,7.23,13.98,7.19,13.97c-0.05-0.01-0.1-0.02-0.15-0.03c-0.06-0.01-0.11-0.02-0.17-0.03
			c-0.06-0.01-0.11-0.03-0.15-0.05s-0.08-0.06-0.11-0.1s-0.04-0.1-0.04-0.17c0-0.07,0.02-0.14,0.06-0.19
			c0.04-0.05,0.1-0.1,0.18-0.13c0.08-0.03,0.17-0.04,0.27-0.04c0.08,0,0.16,0.01,0.24,0.03s0.15,0.05,0.2,0.08l-0.09,0.18
			c-0.06-0.04-0.11-0.06-0.17-0.08s-0.12-0.02-0.18-0.02c-0.1,0-0.17,0.02-0.22,0.05c-0.05,0.03-0.07,0.07-0.07,0.12
			c0,0.04,0.01,0.07,0.04,0.1c0.03,0.02,0.07,0.04,0.11,0.05s0.1,0.02,0.15,0.03c0.06,0.01,0.11,0.02,0.17,0.03
			c0.06,0.01,0.11,0.03,0.15,0.05c0.05,0.02,0.08,0.06,0.11,0.1c0.03,0.04,0.04,0.1,0.04,0.17c0,0.07-0.02,0.14-0.06,0.19
			c-0.04,0.05-0.1,0.1-0.18,0.13C7.23,14.45,7.14,14.47,7.03,14.47z"/>
		<path class="st1" d="M7.66,13.41v-0.18h0.78v0.18H7.66z M8.26,14.47c-0.12,0-0.22-0.03-0.29-0.1c-0.07-0.07-0.1-0.16-0.1-0.28
			v-1.12h0.22v1.11c0,0.07,0.02,0.12,0.05,0.15s0.08,0.05,0.14,0.05c0.07,0,0.13-0.02,0.17-0.06l0.07,0.16
			c-0.03,0.03-0.07,0.05-0.12,0.06S8.31,14.47,8.26,14.47z"/>
		<path class="st1" d="M9.29,14.47c-0.13,0-0.25-0.03-0.35-0.08c-0.1-0.05-0.18-0.13-0.23-0.22c-0.05-0.09-0.08-0.2-0.08-0.32
			c0-0.12,0.03-0.23,0.08-0.32s0.13-0.17,0.22-0.22s0.2-0.08,0.32-0.08c0.12,0,0.22,0.03,0.31,0.08c0.09,0.05,0.16,0.13,0.21,0.22
			c0.05,0.1,0.08,0.21,0.08,0.33c0,0.01,0,0.02,0,0.03c0,0.01,0,0.02,0,0.03H8.81v-0.16h0.93l-0.09,0.05c0-0.08-0.01-0.15-0.05-0.21
			c-0.03-0.06-0.08-0.11-0.14-0.14c-0.06-0.04-0.13-0.05-0.21-0.05c-0.08,0-0.15,0.02-0.21,0.05c-0.06,0.03-0.11,0.08-0.14,0.14
			s-0.05,0.13-0.05,0.21v0.04c0,0.08,0.02,0.15,0.06,0.22S9,14.19,9.06,14.22s0.15,0.05,0.23,0.05c0.07,0,0.14-0.01,0.2-0.04
			c0.06-0.03,0.11-0.06,0.16-0.11l0.12,0.14c-0.06,0.06-0.12,0.12-0.21,0.15C9.48,14.45,9.39,14.47,9.29,14.47z"/>
		<path class="st1" d="M10.16,14.46v-1.22h0.21v0.33l-0.03-0.08c0.04-0.08,0.1-0.14,0.18-0.19c0.08-0.04,0.17-0.07,0.28-0.07
			c0.12,0,0.22,0.03,0.3,0.09c0.08,0.06,0.14,0.14,0.17,0.26l-0.09-0.04c0.04-0.09,0.1-0.17,0.19-0.23c0.09-0.06,0.2-0.09,0.32-0.09
			c0.1,0,0.19,0.02,0.26,0.06c0.08,0.04,0.13,0.1,0.18,0.18c0.04,0.08,0.06,0.18,0.06,0.3v0.71h-0.22v-0.68
			c0-0.12-0.03-0.21-0.08-0.27c-0.06-0.06-0.13-0.09-0.23-0.09c-0.07,0-0.14,0.02-0.19,0.05c-0.06,0.03-0.1,0.08-0.13,0.13
			c-0.03,0.06-0.04,0.13-0.04,0.22v0.63h-0.22v-0.68c0-0.12-0.03-0.21-0.08-0.27s-0.13-0.09-0.23-0.09c-0.07,0-0.14,0.02-0.19,0.05
			c-0.06,0.03-0.1,0.08-0.13,0.13c-0.03,0.06-0.05,0.13-0.05,0.22v0.63H10.16z"/>
		<path class="st1" d="M12.96,14.47c-0.09,0-0.17-0.02-0.24-0.05s-0.12-0.07-0.16-0.13s-0.06-0.12-0.06-0.19
			c0-0.06,0.02-0.13,0.05-0.18c0.03-0.05,0.08-0.1,0.15-0.13c0.07-0.03,0.17-0.05,0.29-0.05h0.39v0.16h-0.38
			c-0.11,0-0.19,0.02-0.22,0.05s-0.06,0.08-0.06,0.13c0,0.06,0.02,0.11,0.07,0.14c0.05,0.04,0.11,0.05,0.2,0.05
			c0.08,0,0.16-0.02,0.22-0.05s0.11-0.09,0.14-0.16l0.04,0.15c-0.03,0.07-0.08,0.13-0.15,0.17C13.16,14.45,13.07,14.47,12.96,14.47z
			 M13.36,14.46V14.2l-0.01-0.05v-0.44c0-0.09-0.03-0.17-0.08-0.22s-0.14-0.08-0.25-0.08c-0.07,0-0.14,0.01-0.21,0.04
			c-0.07,0.02-0.13,0.05-0.18,0.1l-0.09-0.17c0.06-0.05,0.14-0.09,0.23-0.12s0.18-0.04,0.28-0.04c0.17,0,0.3,0.04,0.39,0.12
			c0.09,0.08,0.14,0.21,0.14,0.37v0.74H13.36z"/>
		<path class="st1" d="M15.11,14.47c-0.12,0-0.22-0.03-0.32-0.08c-0.09-0.05-0.17-0.13-0.22-0.22s-0.08-0.2-0.08-0.33
			c0-0.12,0.03-0.23,0.08-0.33s0.13-0.17,0.22-0.22c0.09-0.05,0.2-0.08,0.32-0.08c0.1,0,0.2,0.02,0.28,0.07
			c0.08,0.04,0.15,0.12,0.2,0.21c0.05,0.09,0.08,0.21,0.08,0.35c0,0.14-0.02,0.25-0.07,0.35c-0.05,0.09-0.11,0.16-0.2,0.21
			C15.31,14.45,15.21,14.47,15.11,14.47z M15.13,14.28c0.08,0,0.15-0.02,0.21-0.05c0.06-0.04,0.11-0.09,0.15-0.15
			c0.04-0.07,0.05-0.14,0.05-0.23c0-0.09-0.02-0.16-0.05-0.23c-0.04-0.06-0.09-0.11-0.15-0.15c-0.06-0.04-0.13-0.05-0.21-0.05
			c-0.08,0-0.15,0.02-0.21,0.05c-0.06,0.04-0.11,0.08-0.15,0.15c-0.04,0.06-0.06,0.14-0.06,0.23c0,0.09,0.02,0.16,0.06,0.23
			c0.04,0.06,0.09,0.12,0.15,0.15C14.98,14.26,15.05,14.28,15.13,14.28z M15.54,14.46v-0.33l0.01-0.29l-0.02-0.28v-0.81h0.22v1.71
			H15.54z"/>
		<path class="st1" d="M16.72,14.47c-0.13,0-0.25-0.03-0.35-0.08c-0.1-0.05-0.18-0.13-0.23-0.22c-0.05-0.09-0.08-0.2-0.08-0.32
			c0-0.12,0.03-0.23,0.08-0.32s0.13-0.17,0.22-0.22s0.2-0.08,0.32-0.08c0.12,0,0.22,0.03,0.31,0.08c0.09,0.05,0.16,0.13,0.21,0.22
			c0.05,0.1,0.08,0.21,0.08,0.33c0,0.01,0,0.02,0,0.03c0,0.01,0,0.02,0,0.03h-1.04v-0.16h0.93l-0.09,0.05
			c0-0.08-0.02-0.15-0.05-0.21c-0.04-0.06-0.08-0.11-0.14-0.14c-0.06-0.04-0.13-0.05-0.21-0.05c-0.08,0-0.15,0.02-0.21,0.05
			c-0.06,0.03-0.11,0.08-0.14,0.14s-0.05,0.13-0.05,0.21v0.04c0,0.08,0.02,0.15,0.06,0.22s0.09,0.11,0.16,0.15s0.15,0.05,0.23,0.05
			c0.07,0,0.14-0.01,0.2-0.04c0.06-0.03,0.11-0.06,0.16-0.11l0.12,0.14c-0.05,0.06-0.13,0.12-0.21,0.15S16.82,14.47,16.72,14.47z"/>
		<path class="st1" d="M18.97,14.47c-0.12,0-0.24-0.02-0.34-0.06c-0.1-0.04-0.19-0.1-0.27-0.17s-0.14-0.16-0.18-0.26
			s-0.07-0.21-0.07-0.33c0-0.12,0.02-0.23,0.07-0.33s0.1-0.19,0.18-0.26c0.08-0.08,0.17-0.13,0.27-0.17s0.22-0.06,0.34-0.06
			c0.12,0,0.24,0.02,0.34,0.06c0.11,0.04,0.2,0.11,0.27,0.19l-0.15,0.14c-0.06-0.06-0.13-0.11-0.21-0.14s-0.16-0.05-0.25-0.05
			c-0.09,0-0.17,0.02-0.25,0.05c-0.08,0.03-0.14,0.07-0.2,0.13c-0.06,0.05-0.1,0.12-0.13,0.2c-0.03,0.08-0.05,0.16-0.05,0.25
			s0.02,0.17,0.05,0.25c0.03,0.08,0.08,0.14,0.13,0.2c0.06,0.06,0.13,0.1,0.2,0.13c0.08,0.03,0.16,0.05,0.25,0.05
			c0.09,0,0.17-0.02,0.25-0.05s0.15-0.08,0.21-0.15l0.15,0.14c-0.07,0.08-0.16,0.15-0.27,0.19S19.09,14.47,18.97,14.47z"/>
		<path class="st1" d="M20.32,14.47c-0.12,0-0.23-0.03-0.33-0.08c-0.1-0.05-0.17-0.13-0.23-0.22c-0.05-0.09-0.08-0.2-0.08-0.32
			s0.03-0.23,0.08-0.32c0.06-0.09,0.13-0.17,0.23-0.22c0.1-0.05,0.21-0.08,0.33-0.08c0.12,0,0.23,0.03,0.33,0.08
			c0.1,0.05,0.17,0.13,0.23,0.22s0.08,0.2,0.08,0.32c0,0.12-0.03,0.23-0.08,0.32s-0.13,0.17-0.23,0.22
			C20.55,14.44,20.45,14.47,20.32,14.47z M20.32,14.28c0.08,0,0.15-0.02,0.21-0.05s0.11-0.09,0.15-0.15
			c0.04-0.07,0.05-0.14,0.05-0.23c0-0.09-0.02-0.16-0.05-0.23c-0.04-0.06-0.08-0.11-0.15-0.15s-0.13-0.05-0.21-0.05
			s-0.15,0.02-0.21,0.05s-0.11,0.08-0.15,0.15c-0.04,0.06-0.05,0.14-0.05,0.23c0,0.09,0.02,0.16,0.05,0.23
			c0.04,0.06,0.09,0.12,0.15,0.15S20.25,14.28,20.32,14.28z"/>
		<path class="st1" d="M21.27,14.46v-1.22h0.21v0.33l-0.04-0.09c0.04-0.08,0.1-0.14,0.18-0.19c0.08-0.04,0.18-0.07,0.29-0.07
			c0.1,0,0.19,0.02,0.26,0.06s0.14,0.1,0.18,0.18c0.04,0.08,0.07,0.18,0.07,0.3v0.71h-0.22v-0.68c0-0.12-0.03-0.21-0.09-0.27
			s-0.14-0.09-0.24-0.09c-0.08,0-0.15,0.02-0.21,0.05c-0.06,0.03-0.1,0.08-0.13,0.13c-0.03,0.06-0.05,0.13-0.05,0.22v0.63H21.27z"/>
		<path class="st1" d="M22.66,13.41v-0.18h0.78v0.18H22.66z M23.26,14.47c-0.12,0-0.22-0.03-0.29-0.1c-0.07-0.07-0.1-0.16-0.1-0.28
			v-1.12h0.22v1.11c0,0.07,0.02,0.12,0.05,0.15s0.08,0.05,0.14,0.05c0.07,0,0.13-0.02,0.17-0.06l0.07,0.16
			c-0.03,0.03-0.07,0.05-0.12,0.06S23.31,14.47,23.26,14.47z"/>
		<path class="st1" d="M23.79,14.46v-1.22h0.21v0.33l-0.02-0.08c0.03-0.09,0.09-0.15,0.17-0.19c0.08-0.04,0.18-0.07,0.3-0.07v0.21
			c-0.01,0-0.02,0-0.03,0s-0.02,0-0.02,0c-0.12,0-0.21,0.04-0.28,0.11c-0.07,0.07-0.1,0.17-0.1,0.31v0.61H23.79z"/>
		<path class="st1" d="M25.23,14.47c-0.12,0-0.23-0.03-0.33-0.08c-0.1-0.05-0.17-0.13-0.23-0.22c-0.05-0.09-0.08-0.2-0.08-0.32
			s0.03-0.23,0.08-0.32c0.06-0.09,0.13-0.17,0.23-0.22c0.1-0.05,0.21-0.08,0.33-0.08c0.12,0,0.23,0.03,0.33,0.08
			c0.1,0.05,0.17,0.13,0.23,0.22s0.08,0.2,0.08,0.32c0,0.12-0.03,0.23-0.08,0.32s-0.13,0.17-0.23,0.22
			C25.46,14.44,25.35,14.47,25.23,14.47z M25.23,14.28c0.08,0,0.15-0.02,0.21-0.05s0.11-0.09,0.15-0.15
			c0.04-0.07,0.05-0.14,0.05-0.23c0-0.09-0.02-0.16-0.05-0.23c-0.04-0.06-0.08-0.11-0.15-0.15s-0.13-0.05-0.21-0.05
			s-0.15,0.02-0.21,0.05s-0.11,0.08-0.15,0.15c-0.04,0.06-0.05,0.14-0.05,0.23c0,0.09,0.02,0.16,0.05,0.23
			c0.04,0.06,0.09,0.12,0.15,0.15S25.15,14.28,25.23,14.28z"/>
		<path class="st1" d="M26.17,14.46v-1.71h0.22v1.71H26.17z"/>
		<path class="st1" d="M4.39,17.24c-0.12,0-0.22-0.03-0.32-0.08c-0.09-0.05-0.17-0.13-0.22-0.22s-0.08-0.2-0.08-0.33
			s0.03-0.23,0.08-0.33c0.05-0.09,0.13-0.17,0.22-0.22c0.09-0.05,0.2-0.08,0.32-0.08c0.1,0,0.2,0.02,0.28,0.07
			c0.08,0.05,0.15,0.12,0.2,0.21c0.05,0.09,0.08,0.21,0.08,0.35s-0.02,0.25-0.07,0.35c-0.05,0.09-0.11,0.16-0.2,0.21
			C4.59,17.22,4.49,17.24,4.39,17.24z M4.41,17.05c0.08,0,0.15-0.02,0.21-0.05c0.06-0.04,0.11-0.09,0.15-0.15
			c0.04-0.06,0.05-0.14,0.05-0.23c0-0.09-0.02-0.16-0.05-0.23c-0.04-0.06-0.09-0.11-0.15-0.15c-0.06-0.04-0.13-0.05-0.21-0.05
			c-0.08,0-0.15,0.02-0.21,0.05c-0.06,0.04-0.11,0.09-0.15,0.15c-0.04,0.06-0.06,0.14-0.06,0.23c0,0.09,0.02,0.16,0.06,0.23
			c0.04,0.07,0.09,0.12,0.15,0.15C4.26,17.03,4.33,17.05,4.41,17.05z M4.82,17.23V16.9l0.01-0.28l-0.02-0.29v-0.81h0.22v1.71H4.82z"
			/>
		<path class="st1" d="M6,17.24c-0.13,0-0.25-0.03-0.35-0.08c-0.1-0.05-0.18-0.13-0.23-0.22c-0.05-0.09-0.08-0.2-0.08-0.32
			s0.03-0.23,0.08-0.32c0.05-0.09,0.13-0.17,0.22-0.22c0.09-0.05,0.2-0.08,0.32-0.08c0.12,0,0.22,0.03,0.31,0.08
			s0.16,0.13,0.21,0.22c0.05,0.09,0.08,0.21,0.08,0.33c0,0.01,0,0.02,0,0.03c0,0.01,0,0.02,0,0.04H5.52v-0.16h0.93l-0.09,0.06
			c0-0.08-0.01-0.15-0.05-0.21s-0.08-0.11-0.14-0.14c-0.06-0.04-0.13-0.05-0.21-0.05c-0.08,0-0.15,0.02-0.21,0.05
			s-0.11,0.08-0.14,0.15s-0.05,0.13-0.05,0.21v0.04c0,0.08,0.02,0.15,0.06,0.22c0.04,0.06,0.09,0.11,0.16,0.15s0.15,0.05,0.23,0.05
			c0.07,0,0.14-0.01,0.2-0.04c0.06-0.02,0.11-0.06,0.16-0.11l0.12,0.14c-0.06,0.06-0.12,0.11-0.21,0.15
			C6.19,17.22,6.1,17.24,6,17.24z"/>
		<path class="st1" d="M8.25,17.24c-0.12,0-0.24-0.02-0.34-0.06c-0.1-0.04-0.2-0.1-0.27-0.17c-0.08-0.08-0.14-0.16-0.18-0.26
			c-0.04-0.1-0.06-0.21-0.06-0.33c0-0.12,0.02-0.23,0.06-0.33c0.04-0.1,0.1-0.19,0.18-0.26c0.08-0.07,0.17-0.13,0.27-0.17
			c0.1-0.04,0.22-0.06,0.35-0.06c0.13,0,0.25,0.02,0.35,0.06c0.11,0.04,0.2,0.1,0.27,0.19l-0.14,0.14
			c-0.07-0.06-0.14-0.11-0.22-0.14c-0.08-0.03-0.16-0.04-0.25-0.04c-0.09,0-0.18,0.02-0.26,0.05s-0.15,0.07-0.21,0.13
			c-0.06,0.06-0.1,0.12-0.13,0.2c-0.03,0.08-0.05,0.16-0.05,0.25s0.02,0.17,0.05,0.25c0.03,0.08,0.08,0.14,0.13,0.2
			s0.13,0.1,0.2,0.13c0.08,0.03,0.16,0.04,0.26,0.04c0.09,0,0.17-0.01,0.25-0.04s0.15-0.07,0.22-0.13l0.13,0.17
			c-0.08,0.07-0.17,0.12-0.28,0.15C8.48,17.23,8.37,17.24,8.25,17.24z M8.86,17.04l-0.22-0.03v-0.6h0.22V17.04z"/>
		<path class="st1" d="M9.82,17.24c-0.13,0-0.25-0.03-0.35-0.08c-0.1-0.05-0.18-0.13-0.23-0.22c-0.05-0.09-0.08-0.2-0.08-0.32
			s0.03-0.23,0.08-0.32c0.05-0.09,0.13-0.17,0.22-0.22c0.09-0.05,0.2-0.08,0.32-0.08c0.12,0,0.22,0.03,0.31,0.08
			s0.16,0.13,0.21,0.22c0.05,0.09,0.08,0.21,0.08,0.33c0,0.01,0,0.02,0,0.03c0,0.01,0,0.02,0,0.04H9.33v-0.16h0.93l-0.09,0.06
			c0-0.08-0.01-0.15-0.05-0.21s-0.08-0.11-0.14-0.14c-0.06-0.04-0.13-0.05-0.21-0.05c-0.08,0-0.15,0.02-0.21,0.05
			s-0.11,0.08-0.14,0.15s-0.05,0.13-0.05,0.21v0.04c0,0.08,0.02,0.15,0.06,0.22c0.04,0.06,0.09,0.11,0.16,0.15s0.15,0.05,0.23,0.05
			c0.07,0,0.14-0.01,0.2-0.04c0.06-0.02,0.11-0.06,0.16-0.11l0.12,0.14c-0.06,0.06-0.12,0.11-0.21,0.15
			C10.01,17.22,9.92,17.24,9.82,17.24z"/>
		<path class="st1" d="M11.04,17.24c-0.1,0-0.2-0.01-0.29-0.04c-0.09-0.03-0.16-0.06-0.22-0.1l0.09-0.18
			c0.05,0.04,0.12,0.07,0.19,0.09c0.08,0.03,0.16,0.04,0.24,0.04c0.1,0,0.18-0.01,0.22-0.04s0.07-0.07,0.07-0.12
			c0-0.04-0.01-0.07-0.04-0.09s-0.06-0.04-0.11-0.05c-0.05-0.01-0.1-0.02-0.15-0.03c-0.06-0.01-0.11-0.02-0.17-0.03
			c-0.06-0.01-0.11-0.03-0.15-0.06c-0.05-0.02-0.08-0.06-0.11-0.1c-0.03-0.04-0.04-0.1-0.04-0.17c0-0.07,0.02-0.14,0.06-0.2
			c0.04-0.05,0.1-0.1,0.18-0.13c0.08-0.03,0.17-0.04,0.27-0.04c0.08,0,0.16,0.01,0.24,0.03c0.08,0.02,0.15,0.04,0.2,0.08l-0.09,0.18
			c-0.06-0.04-0.11-0.06-0.17-0.08s-0.12-0.02-0.18-0.02c-0.1,0-0.17,0.02-0.22,0.05c-0.05,0.03-0.07,0.07-0.07,0.12
			c0,0.04,0.01,0.07,0.04,0.1c0.03,0.02,0.07,0.04,0.11,0.05c0.05,0.01,0.1,0.02,0.15,0.03c0.06,0.01,0.11,0.02,0.17,0.03
			c0.06,0.01,0.11,0.03,0.15,0.05s0.08,0.05,0.11,0.1c0.03,0.04,0.04,0.1,0.04,0.17c0,0.07-0.02,0.14-0.06,0.19
			c-0.04,0.05-0.1,0.1-0.18,0.13C11.24,17.23,11.15,17.24,11.04,17.24z"/>
		<path class="st1" d="M11.67,16.18V16h0.78v0.18H11.67z M12.26,17.24c-0.12,0-0.22-0.03-0.29-0.1c-0.07-0.07-0.1-0.16-0.1-0.29
			v-1.12h0.22v1.11c0,0.07,0.02,0.12,0.05,0.15c0.03,0.04,0.08,0.05,0.14,0.05c0.07,0,0.13-0.02,0.17-0.06l0.07,0.16
			c-0.03,0.03-0.07,0.05-0.12,0.06S12.31,17.24,12.26,17.24z"/>
		<path class="st1" d="M12.91,15.77c-0.04,0-0.08-0.01-0.11-0.04c-0.03-0.03-0.04-0.06-0.04-0.1c0-0.04,0.01-0.08,0.04-0.1
			c0.03-0.03,0.06-0.04,0.11-0.04c0.04,0,0.08,0.01,0.11,0.04c0.03,0.03,0.04,0.06,0.04,0.1c0,0.04-0.01,0.08-0.04,0.11
			C12.99,15.75,12.95,15.77,12.91,15.77z M12.8,17.23V16h0.22v1.22H12.8z"/>
		<path class="st1" d="M13.97,17.24c-0.12,0-0.23-0.03-0.33-0.08s-0.17-0.13-0.23-0.22c-0.06-0.1-0.08-0.2-0.08-0.32
			c0-0.12,0.03-0.23,0.08-0.32c0.06-0.09,0.13-0.17,0.23-0.22c0.1-0.05,0.21-0.08,0.33-0.08c0.12,0,0.23,0.03,0.33,0.08
			c0.1,0.05,0.17,0.13,0.23,0.22c0.05,0.1,0.08,0.2,0.08,0.32s-0.03,0.23-0.08,0.32c-0.05,0.1-0.13,0.17-0.23,0.22
			S14.09,17.24,13.97,17.24z M13.97,17.05c0.08,0,0.15-0.02,0.21-0.05c0.06-0.04,0.11-0.09,0.15-0.15c0.04-0.06,0.05-0.14,0.05-0.23
			c0-0.09-0.02-0.16-0.05-0.23c-0.04-0.06-0.08-0.11-0.15-0.15c-0.06-0.04-0.13-0.05-0.21-0.05s-0.15,0.02-0.21,0.05
			c-0.06,0.04-0.11,0.09-0.15,0.15c-0.04,0.06-0.06,0.14-0.06,0.23c0,0.09,0.02,0.16,0.06,0.23c0.04,0.07,0.09,0.12,0.15,0.15
			C13.82,17.03,13.89,17.05,13.97,17.05z M13.79,15.82l0.31-0.3h0.28L14,15.82H13.79z"/>
		<path class="st1" d="M14.91,17.23V16h0.21v0.33l-0.03-0.09c0.04-0.08,0.1-0.14,0.19-0.19s0.18-0.07,0.29-0.07
			c0.1,0,0.19,0.02,0.26,0.06c0.08,0.04,0.14,0.1,0.18,0.18c0.04,0.08,0.06,0.18,0.06,0.3v0.7h-0.22v-0.68
			c0-0.12-0.03-0.21-0.09-0.27c-0.06-0.06-0.14-0.09-0.24-0.09c-0.08,0-0.15,0.02-0.21,0.05s-0.1,0.08-0.14,0.14
			c-0.03,0.06-0.05,0.13-0.05,0.22v0.63H14.91z"/>
		<path class="st1" d="M17.46,17.23v-1.41H16.9v-0.2h1.34v0.2h-0.55v1.41H17.46z"/>
		<path class="st1" d="M18.88,17.24c-0.13,0-0.25-0.03-0.34-0.08c-0.1-0.05-0.18-0.13-0.23-0.22c-0.05-0.09-0.08-0.2-0.08-0.32
			s0.03-0.23,0.08-0.32c0.05-0.09,0.13-0.17,0.22-0.22c0.09-0.05,0.2-0.08,0.31-0.08c0.12,0,0.22,0.03,0.31,0.08
			s0.16,0.13,0.21,0.22c0.05,0.09,0.08,0.21,0.08,0.33c0,0.01,0,0.02,0,0.03c0,0.01,0,0.02,0,0.04h-1.04v-0.16h0.93l-0.09,0.06
			c0-0.08-0.01-0.15-0.05-0.21s-0.08-0.11-0.14-0.14s-0.13-0.05-0.21-0.05c-0.08,0-0.15,0.02-0.21,0.05
			c-0.06,0.04-0.11,0.08-0.14,0.15c-0.03,0.06-0.05,0.13-0.05,0.21v0.04c0,0.08,0.02,0.15,0.06,0.22c0.04,0.06,0.09,0.11,0.16,0.15
			c0.07,0.04,0.15,0.05,0.23,0.05c0.07,0,0.14-0.01,0.2-0.04c0.06-0.02,0.11-0.06,0.16-0.11l0.12,0.14
			c-0.05,0.06-0.12,0.11-0.21,0.15C19.07,17.22,18.98,17.24,18.88,17.24z"/>
		<path class="st1" d="M19.74,17.23V16h0.21v0.33l-0.02-0.08c0.03-0.08,0.09-0.15,0.17-0.19s0.18-0.07,0.3-0.07v0.21
			c-0.01,0-0.02,0-0.03,0s-0.02,0-0.02,0c-0.12,0-0.21,0.04-0.28,0.11s-0.1,0.17-0.1,0.31v0.61H19.74z"/>
		<path class="st1" d="M20.67,17.23V16h0.21v0.33l-0.02-0.08c0.03-0.08,0.09-0.15,0.17-0.19s0.18-0.07,0.3-0.07v0.21
			c-0.01,0-0.02,0-0.03,0s-0.02,0-0.02,0c-0.12,0-0.21,0.04-0.28,0.11s-0.1,0.17-0.1,0.31v0.61H20.67z"/>
		<path class="st1" d="M21.7,15.77c-0.04,0-0.08-0.01-0.11-0.04s-0.04-0.06-0.04-0.1c0-0.04,0.01-0.08,0.04-0.1
			c0.03-0.03,0.06-0.04,0.11-0.04s0.08,0.01,0.11,0.04c0.03,0.03,0.04,0.06,0.04,0.1c0,0.04-0.01,0.08-0.04,0.11
			C21.78,15.75,21.75,15.77,21.7,15.77z M21.59,17.23V16h0.22v1.22H21.59z"/>
		<path class="st1" d="M22.01,16.18V16h0.78v0.18H22.01z M22.61,17.24c-0.12,0-0.22-0.03-0.29-0.1c-0.07-0.07-0.1-0.16-0.1-0.29
			v-1.12h0.22v1.11c0,0.07,0.02,0.12,0.05,0.15c0.03,0.04,0.08,0.05,0.14,0.05c0.07,0,0.13-0.02,0.17-0.06l0.07,0.16
			c-0.03,0.03-0.07,0.05-0.12,0.06S22.66,17.24,22.61,17.24z"/>
		<path class="st1" d="M23.62,17.24c-0.12,0-0.23-0.03-0.33-0.08c-0.1-0.05-0.17-0.13-0.23-0.22c-0.05-0.1-0.08-0.2-0.08-0.32
			c0-0.12,0.03-0.23,0.08-0.32c0.06-0.09,0.13-0.17,0.23-0.22c0.1-0.05,0.21-0.08,0.33-0.08c0.12,0,0.23,0.03,0.33,0.08
			c0.1,0.05,0.17,0.13,0.23,0.22c0.05,0.1,0.08,0.2,0.08,0.32s-0.03,0.23-0.08,0.32c-0.05,0.1-0.13,0.17-0.23,0.22
			C23.85,17.21,23.75,17.24,23.62,17.24z M23.62,17.05c0.08,0,0.15-0.02,0.21-0.05s0.11-0.09,0.15-0.15
			c0.04-0.06,0.05-0.14,0.05-0.23c0-0.09-0.02-0.16-0.05-0.23c-0.04-0.06-0.08-0.11-0.15-0.15s-0.13-0.05-0.21-0.05
			s-0.15,0.02-0.21,0.05s-0.11,0.09-0.15,0.15c-0.04,0.06-0.05,0.14-0.05,0.23c0,0.09,0.02,0.16,0.05,0.23
			c0.04,0.07,0.09,0.12,0.15,0.15S23.55,17.05,23.62,17.05z"/>
		<path class="st1" d="M24.57,17.23V16h0.21v0.33l-0.02-0.08c0.03-0.08,0.09-0.15,0.17-0.19s0.18-0.07,0.3-0.07v0.21
			c-0.01,0-0.02,0-0.03,0s-0.02,0-0.02,0c-0.12,0-0.21,0.04-0.28,0.11s-0.1,0.17-0.1,0.31v0.61H24.57z"/>
		<path class="st1" d="M25.6,15.77c-0.04,0-0.08-0.01-0.11-0.04s-0.04-0.06-0.04-0.1c0-0.04,0.01-0.08,0.04-0.1
			c0.03-0.03,0.06-0.04,0.11-0.04s0.08,0.01,0.11,0.04c0.03,0.03,0.04,0.06,0.04,0.1c0,0.04-0.01,0.08-0.04,0.11
			C25.68,15.75,25.64,15.77,25.6,15.77z M25.49,17.23V16h0.22v1.22H25.49z"/>
		<path class="st1" d="M26.49,17.24c-0.09,0-0.17-0.02-0.24-0.04c-0.07-0.03-0.12-0.07-0.16-0.13s-0.06-0.12-0.06-0.19
			c0-0.07,0.02-0.13,0.05-0.18c0.03-0.05,0.08-0.1,0.15-0.13c0.07-0.03,0.17-0.05,0.29-0.05h0.39v0.16h-0.38
			c-0.11,0-0.19,0.02-0.22,0.06s-0.06,0.08-0.06,0.13c0,0.06,0.02,0.11,0.07,0.14c0.05,0.04,0.11,0.05,0.2,0.05
			c0.08,0,0.16-0.02,0.22-0.06c0.06-0.04,0.11-0.09,0.13-0.16L26.93,17c-0.03,0.07-0.08,0.13-0.15,0.17
			C26.7,17.22,26.6,17.24,26.49,17.24z M26.89,17.23v-0.26l-0.01-0.05v-0.44c0-0.09-0.03-0.17-0.08-0.22
			c-0.05-0.05-0.14-0.08-0.25-0.08c-0.07,0-0.14,0.01-0.21,0.04s-0.13,0.06-0.18,0.1l-0.09-0.17c0.06-0.05,0.14-0.09,0.23-0.12
			c0.09-0.03,0.18-0.04,0.28-0.04c0.17,0,0.3,0.04,0.39,0.12c0.09,0.08,0.14,0.21,0.14,0.38v0.74H26.89z"/>
		<path class="st1" d="M27.51,17.23v-1.71h0.22v1.71H27.51z"/>
	</g>
	<polygon class="st2" points="32.69,11.82 -1.69,11.82 -1.02,11.14 33.31,11.14 	"/>
	<g>
		<path class="st3" d="M5.58,10.42c-1.04,0-1.94-0.19-2.72-0.56s-1.38-0.9-1.8-1.57S0.42,6.85,0.42,5.96c0-0.87,0.16-1.67,0.47-2.41
			C1.2,2.83,1.64,2.2,2.2,1.67s1.24-0.94,2.01-1.23C4.99,0.14,5.85,0,6.78,0C7.74,0,8.6,0.17,9.35,0.51
			c0.75,0.34,1.3,0.83,1.67,1.48L8.57,3.89C8.36,3.52,8.09,3.23,7.75,3.02c-0.34-0.2-0.73-0.31-1.19-0.31c-0.4,0-0.77,0.07-1.1,0.22
			C5.13,3.09,4.84,3.29,4.6,3.56C4.37,3.84,4.18,4.16,4.04,4.53C3.91,4.9,3.84,5.3,3.84,5.75c0,0.39,0.09,0.73,0.26,1.02
			C4.27,7.07,4.52,7.3,4.83,7.46C5.14,7.62,5.5,7.7,5.91,7.7c0.39,0,0.78-0.09,1.16-0.27c0.38-0.18,0.74-0.47,1.09-0.88l2,1.89
			c-0.61,0.74-1.3,1.25-2.05,1.54C7.35,10.27,6.51,10.42,5.58,10.42z"/>
		<path class="st3" d="M15.92,10.42c-1.04,0-1.94-0.19-2.72-0.56s-1.38-0.9-1.8-1.57s-0.64-1.44-0.64-2.33
			c0-0.87,0.16-1.67,0.47-2.41c0.31-0.73,0.75-1.36,1.33-1.89c0.58-0.53,1.26-0.94,2.05-1.23C15.39,0.14,16.27,0,17.23,0
			c1.05,0,1.96,0.16,2.72,0.49c0.76,0.33,1.38,0.81,1.85,1.46l-2.43,1.86c-0.32-0.42-0.67-0.7-1.03-0.86
			c-0.37-0.16-0.79-0.23-1.27-0.23c-0.44,0-0.84,0.07-1.19,0.22c-0.35,0.15-0.66,0.36-0.91,0.63s-0.45,0.59-0.58,0.96
			c-0.13,0.37-0.2,0.78-0.2,1.22c0,0.39,0.09,0.73,0.27,1.02c0.18,0.29,0.43,0.52,0.76,0.68c0.33,0.16,0.73,0.24,1.19,0.24
			c0.38,0,0.77-0.06,1.15-0.19c0.38-0.13,0.78-0.35,1.18-0.66L20,9.24c-0.53,0.38-1.14,0.67-1.84,0.88
			C17.46,10.32,16.71,10.42,15.92,10.42z M17.16,8.72l0.76-3.79h2.95L20,9.24L17.16,8.72z"/>
		<path class="st3" d="M23.44,10.19l1.48-7.36h-2.95l0.53-2.6h9.29l-0.53,2.6h-2.95l-1.48,7.36H23.44z"/>
	</g>
</g>
<g>
</g>
<g>
</g>
<g>
</g>
<g>
</g>
<g>
</g>
<g>
</g>
</svg>
